<svg xmlns="http://www.w3.org/2000/svg" width="256" height="256"><path fill-opacity=".016" d="M0 128.004v128.004l128.25-.254 128.25-.254.254-127.75L257.008 0H0v128.004m.485.496c0 70.4.119 99.053.265 63.672.146-35.38.146-92.98 0-128C.604 29.153.485 58.1.485 128.5" fill="#1976D2" fill-rule="evenodd"/><path fill-opacity=".271" d="M105.922 2.552c-26.737 4.841-50.753 17.95-70.063 38.242C20.975 56.434 10.38 75.486 4.761 96.713c-2.983 11.272-3.12 12.639-3.12 31.287 0 18.665.134 20.007 3.133 31.339 5.969 22.554 18.488 43.927 35.09 59.909 14.773 14.22 29.747 23.343 48.636 29.629 24.232 8.064 53.745 8.258 78 .512 38.754-12.377 69.606-42.744 82.487-81.19 8.111-24.21 8.627-51.016 1.459-75.811-13.3-46.007-53.004-81.596-100.248-89.86-10.748-1.88-33.831-1.868-44.276.024m9.932.46C60.182 8.206 14.303 50.918 4.559 106.626c-1.992 11.385-1.988 31.364.008 42.874 5.227 30.142 22.219 58.629 45.89 76.935 24.045 18.594 47.99 26.817 78.043 26.801 34.531-.02 63.533-12.083 88.093-36.643 18.525-18.525 29.336-38.649 34.968-65.093 2.345-11.008 2.384-34.945.077-46.775-8.53-43.736-39.651-80.086-81.404-95.084-15.603-5.604-37.176-8.234-54.38-6.629m6.363 18.627L122.5 33.5h2.5c2.226 0 2.534-.465 2.807-4.25.396-5.466 1.975-5.432 5.892.125 2.307 3.274 3.745 4.375 5.711 4.375 3.758 0 3.843-.836.585-5.757-2.827-4.271-2.85-4.407-.945-5.74 2.675-1.874 2.598-7.356-.138-9.833-1.548-1.401-4.015-1.987-9.533-2.266l-7.444-.376.282 11.861m23.385-9.907c-.245.245.667 3.403 2.028 7.017 2.012 5.347 2.349 7.568 1.807 11.912-.623 4.98-.525 5.339 1.448 5.339 1.163 0 2.453.023 2.865.051.412.028 1.124-1.884 1.581-4.25.634-3.283 2.133-5.63 6.332-9.913 4.455-4.544 5.184-5.733 3.837-6.25-3.058-1.173-5.132-.658-7.5 1.862-1.292 1.375-2.652 2.5-3.023 2.5-.37 0-1.355-1.736-2.189-3.857-1.101-2.803-2.23-3.994-4.128-4.357-1.437-.275-2.813-.299-3.058-.054m-42.441 2.018c-1.191 2.293-5.429 22.315-4.846 22.898 1.233 1.233 5.758-1.09 6.296-3.232.871-3.473 6.935-4.509 9.015-1.54 1.455 2.077 5.765 2.918 6.754 1.318.274-.444-2.225-5.394-5.555-11C109.886 13.876 108.34 12 106.421 12c-1.293 0-2.76.787-3.26 1.75M128 17.5c0 1.048 1.056 1.5 3.5 1.5s3.5-.452 3.5-1.5-1.056-1.5-3.5-1.5-3.5.452-3.5 1.5m-43.471.855c-1.02.746-1.597 1.983-1.282 2.75.314.767 1.304 3.107 2.198 5.2 1.548 3.617 1.54 3.756-.159 2.822-.982-.54-3.336-2.14-5.23-3.555-3.627-2.708-5.637-3.123-7.971-1.646-1.162.736-.633 2.691 2.975 10.985 4.326 9.944 5.568 11.245 8.784 9.206 1.118-.708 1.097-1.337-.123-3.734-.807-1.586-1.805-3.974-2.217-5.309-.707-2.285-.461-2.213 4.257 1.25 5.369 3.942 6.345 4.225 9.236 2.678 1.754-.939 1.591-1.621-2.752-11.5C89.706 21.726 87.348 17 87.005 17c-.342 0-1.457.61-2.476 1.355m22.11 4.143c-.893 2.327-.832 2.502.861 2.502 1.683 0 1.873-.863.624-2.834-.675-1.064-.975-.997-1.485.332m71.976 5.59c-8.187 6.44-7.177 17.921 1.839 20.897 2.781.918 3.998.833 6.485-.453 3.453-1.786 3.64-2.357 1.662-5.064-1.251-1.71-1.673-1.768-3.966-.54-4.807 2.572-7.219-1.964-4.175-7.851 2.359-4.562 8.54-4.608 8.54-.062 0 1.828 2.67 3.985 4.934 3.985 1.362 0 1.387-5.532.036-8.055-2.56-4.784-10.927-6.34-15.355-2.857M62.614 30.541c-1.078.787-1.615 2.015-1.272 2.908.463 1.206 9.816 15.667 11.277 17.436.175.212 1.461-.363 2.857-1.277l2.538-1.663-5.983-8.899c-3.291-4.894-6.337-9.117-6.768-9.384-.432-.266-1.624.129-2.649.879m-13.195 10.31c-2.155 1.583-4.993 4.046-6.305 5.473l-2.387 2.595 7.275 7.791c7.46 7.988 9.475 9.066 11.361 6.076.868-1.375.509-2.31-1.818-4.739-1.595-1.664-2.594-3.331-2.222-3.704.373-.372 3.098-.239 6.056.298 4.557.826 5.702.712 7.499-.744 2.355-1.906 2.799-3.894.872-3.903-.687-.003-2.937-.474-5-1.047-2.97-.824-3.75-1.528-3.75-3.383 0-1.288-.788-3.253-1.75-4.366-2.955-3.418-5.527-3.508-9.831-.347m56.824.587c-30.939 8.173-54.29 30.918-63.932 62.274-2.45 7.966-2.7 10.237-2.676 24.288.023 13.909.301 16.403 2.705 24.297 4.918 16.151 12.329 28.288 24.317 39.823 17.341 16.687 37.67 24.88 61.735 24.88 23.939 0 45.969-9.1 62.666-25.886 10.825-10.883 17.54-21.968 22.482-37.114 3.692-11.314 4.634-32.627 1.97-44.598-6.389-28.718-26.864-53.295-53.293-63.97-11.339-4.581-17.21-5.686-32.217-6.07-12.911-.329-15.514-.102-23.757 2.076m11.919-.3c-34.453 3.605-64.452 29.236-74.404 63.571-3.047 10.512-3.233 35.197-.341 45.291 10.788 37.656 40.656 62.06 80.012 65.375 5.321.448 6.656.31 5.75-.596-.734-.734-1.179-4.639-1.179-10.345v-9.166l-6.075-2.215c-8.246-3.007-11.897-6.421-12.618-11.803-.54-4.027-.326-4.494 4.097-8.918l4.668-4.667-3.2-13.555c-2.822-11.95-3.583-13.915-6.426-16.596-1.773-1.672-3.81-4.996-4.526-7.386-1.19-3.972-1.114-4.7.891-8.486l2.192-4.142-2.502-10.314C103.126 101.514 102 96.263 102 95.518c0-1.256 12.617-6.234 13.518-5.334.214.215.904 4.648 1.533 9.853.629 5.205 1.252 9.578 1.384 9.718.132.139 1.71-.258 3.507-.885l3.266-1.138-.715-13.116c-.394-7.214-.847-13.26-1.007-13.436-.161-.176-2.248.703-4.639 1.952-3.605 1.884-6.209 2.32-15.25 2.553-7.604.196-11.385.706-12.5 1.687-.878.773-3.06 1.716-4.847 2.096-4.959 1.054-4.381-2.185.75-4.2 2.57-1.01 4-2.205 4-3.343 0-2.617 4.577-7.593 9.797-10.652 4.042-2.369 5.662-2.693 13.645-2.73l9.058-.043-.055-4.624c-.042-3.511-.703-5.394-2.75-7.827C119.213 54.288 118 51.791 118 50.5c0-2.663 4.484-8.5 6.53-8.5.744 0 1.63-.45 1.97-1 .34-.55.479-.94.309-.867-.17.073-4.061.525-8.647 1.005m18.45.842c2.902 1.173 6.388 5.821 6.388 8.517 0 1.226-1.35 3.927-3 6.003-2.36 2.969-2.998 4.76-2.991 8.388l.01 4.612 7.254 2.202c16.975 5.152 23.399 18.797 14.677 31.172-2.039 2.892-3.893 7.444-5.122 12.579-2.68 11.19-9.824 46.671-9.826 48.797-.003 2.58 1.428 2.153 5.427-1.618 4.523-4.266 4.862-8.944.982-13.555-1.424-1.692-2.131-3.077-1.572-3.077 1.57 0 4.951 4.767 5.655 7.974.828 3.767-1.734 8.701-5.64 10.863-5.476 3.032-5.92 3.644-7.733 10.678-.991 3.842-2.548 8.425-3.461 10.185-2.154 4.154-2.093 5.028.406 5.821 1.136.36 3.611 2.012 5.5 3.671 2.646 2.323 3.434 3.794 3.434 6.412 0 4.074-.86 4.243-4.076.801-2.441-2.613-6.988-5.405-8.803-5.405-.542 0-1.122 4.017-1.3 9.002l-.321 9.003 3.5-.02c7.798-.044 22.58-4.214 32.296-9.11 10.584-5.334 25.207-18.181 31.826-27.961 8.248-12.187 13.238-25.81 14.845-40.536 4.776-43.743-23.554-84.158-66.149-94.37-8.648-2.073-16.411-2.727-12.206-1.028m61.003 2.108c-3.155 2.482-5.616 6.918-5.611 10.112.006 3.562 3.697 8.777 7.268 10.269 4.353 1.819 8.184.909 12.225-2.902 5.662-5.34 5.853-11.371.529-16.695-3.653-3.653-10.303-4.015-14.411-.784M50.976 46.526c-1.828 1.945-2.083 2.767-1.149 3.701.934.934 1.765.635 3.744-1.343 2.125-2.125 2.314-2.735 1.149-3.702-1.098-.91-1.895-.624-3.744 1.344M204 47.741c-2.825.968-6 4.607-6 6.877 0 2.706 3.386 5.355 5.979 4.677 2.949-.771 6.22-4.869 5.853-7.333-.386-2.596-3.66-4.966-5.832-4.221M30.25 62.907c-2.337 3.789-4.25 7.115-4.25 7.39C26 71.004 43.821 82 44.967 82c.519 0 2.817-3.153 5.106-7.006 3.423-5.762 3.942-7.271 2.922-8.5-1.89-2.278-2.524-1.902-6.038 3.573-2.849 4.44-3.432 4.887-4.71 3.609-1.278-1.278-1.129-2.021 1.204-6.002 2.612-4.457 2.624-4.563.671-5.609-2.773-1.484-2.637-1.568-5.583 3.459-1.459 2.489-3.076 4.262-3.595 3.941-1.47-.908-1.149-2.18 1.678-6.659 2.498-3.957 2.537-4.217.809-5.48-.997-.729-2.065-1.322-2.372-1.317-.308.004-2.472 3.108-4.809 6.898m186.452 1.678c-10.652 6.2-12.053 10.616-5.57 17.557 2.419 2.589 3.454 3.025 6.145 2.588 3.019-.49 15.184-7.049 16.239-8.755.26-.422-.312-1.693-1.271-2.826-1.745-2.059-1.747-2.059-8.598 2.075-5.334 3.219-7.219 3.905-8.5 3.097-3.348-2.112-1.851-4.7 5.102-8.821 7.002-4.15 7.596-4.99 5.501-7.786-1.135-1.515-1.967-1.251-9.048 2.871M100.435 73.25c-6.236 4.23-9.305 8.28-7.581 10.003 2.22 2.218 18.784 1.388 24.911-1.247 4.461-1.919 6.183-2.139 11.973-1.53 8.745.921 15.931 3.983 17.792 7.581 1.006 1.947 2.923 3.265 6.451 4.437 5.544 1.841 5.416 1.636 4.036 6.446-1.49 5.198-.307 4.969 2.068-.398 2.978-6.734 2.053-11.968-3.166-17.896C150.337 73.168 138.36 70 116.671 70c-11.263 0-11.521.052-16.236 3.25m2.045.782c-.388.628-.235 1.613.34 2.188 1.344 1.344 4.477.172 3.93-1.471-.556-1.671-3.386-2.147-4.27-.717M20.886 78.75c-5.434 14.041-5.308 13.467-3.27 14.969 1.632 1.202 2.018 1.169 2.884-.252 2.716-4.454 2.626-4.444 10.759-1.224 4.268 1.69 7.943 2.888 8.169 2.663.225-.226.695-1.546 1.043-2.935.6-2.389.203-2.681-7.419-5.452C28.624 84.909 25 83.487 25 83.361c0-.127.467-1.46 1.039-2.963.783-2.059.721-2.933-.25-3.55-2.323-1.473-3.821-.892-4.903 1.902m115.685 13.826c-.388 5.292-.474 9.854-.191 10.137.283.283 2.063-.442 3.956-1.611 2.831-1.75 3.56-2.922 4.114-6.615.37-2.468 1.095-4.487 1.611-4.487 3.077 0-2.123-4.982-6.672-6.392-2.017-.625-2.143-.224-2.818 8.968m89.929-5.172c-9.185 2.959-9.978 3.416-9.728 5.597.149 1.307.442 2.546.651 2.755.209.209 2.721-.315 5.581-1.165 5.84-1.734 5.832-1.598-.328 5.087-2.269 2.462-2.783 3.758-2.283 5.75.355 1.415 1.149 2.572 1.765 2.572 3.017 0 20.84-6.241 20.827-7.293-.009-.664-.431-1.864-.939-2.667-.806-1.275-1.569-1.254-5.985.158-5.447 1.742-6.295 1.227-2.953-1.793 4.084-3.691 6.114-7.383 5.471-9.947-.339-1.352-.946-2.417-1.348-2.367-.402.05-5.231 1.541-10.731 3.313m-139-.868c-2.501 1.146-2.646 1.381-.872 1.419 1.17.025 2.687-.63 3.372-1.455 1.458-1.757 1.415-1.756-2.5.036M13.619 100.75c-.873 2.965-2.763 14.439-2.432 14.766.172.169 5.186 1.192 11.141 2.274 7.743 1.405 10.946 1.644 11.242.838.228-.62 1.027-4.41 1.776-8.421 1.284-6.876 1.255-7.35-.513-8.296-2.802-1.5-3.623-.442-4.384 5.655-.548 4.378-1.032 5.464-2.32 5.198-1.314-.271-1.579-1.441-1.37-6.05.247-5.455.149-5.714-2.17-5.714-1.941 0-2.562.655-3.084 3.25-1.164 5.782-1.614 6.75-3.14 6.75-.95 0-1.319-.641-1.005-1.75.271-.963.791-3.662 1.155-6 .63-4.051.543-4.25-1.86-4.25-1.537 0-2.721.683-3.036 1.75m125.631 2.492c-2.954 1.765-3.25 2.385-3.25 6.798v4.856l2.938-1.024c2.627-.916 3.009-1.601 3.62-6.494.376-3.008.517-5.607.313-5.774-.204-.168-1.834.569-3.621 1.638m-19 7.42c-1.318.532-1.621 4.352-.637 8.021.51 1.903.894 2.043 2.986 1.09 1.998-.91 2.401-1.823 2.401-5.434 0-4.389-1.023-5.181-4.75-3.677m108.009.825c-4.646 2.019-6.963 7.22-5.457 12.245 1.159 3.871 6.181 8.015 8.2 6.767 1.737-1.074 1.08-4.967-1.064-6.306-1.428-.892-1.966-2.118-1.75-3.99.255-2.208 1.013-2.876 4.14-3.648 4.04-.998 6.181-.28 8.063 2.703.764 1.211.559 2.14-.802 3.643-1.254 1.386-1.626 2.814-1.188 4.559.811 3.233 2.076 3.207 5.147-.106 3.774-4.073 3.398-9.608-.948-13.954-3.83-3.83-8.499-4.452-14.341-1.913m-90.509 4.202c-1.179.308-1.776 1.494-1.83 3.634-.043 1.747-.388 6.89-.765 11.427-.528 6.349-.395 8.25.579 8.25.696 0 1.27-.338 1.275-.75.006-.412.906-5.181 2-10.597 2.712-13.411 2.754-13.012-1.259-11.964m-31.572 5.995c-2.381 4.414-.781 11.911 3.256 15.261 2.043 1.695 2.017.848-.287-9.445-1.601-7.154-1.915-7.769-2.969-5.816m16.434-.395c-1.596 1.172-1.777 2.126-1.169 6.176.936 6.243 1.478 7.535 3.164 7.535 1.527 0 1.713-3.522.569-10.799-.629-3.998-.808-4.202-2.564-2.912m-111.425 2.85c.287 2.878.805 3.293 6.238 5.008 3.259 1.029 6.101 2.045 6.314 2.259.214.214-2.565 1.371-6.175 2.573-6.087 2.025-6.564 2.396-6.564 5.103 0 1.605.486 2.918 1.08 2.918 1.384 0 17.353-5.626 20.019-7.053 1.397-.748 1.925-1.887 1.711-3.693-.278-2.338-1.406-3.008-10.81-6.418-5.775-2.094-10.866-3.813-11.313-3.821-.448-.008-.673 1.397-.5 3.124M222 136.707c0 2.979.056 3.009 6.75 3.641 3.713.351 8.887.641 11.5.645 4.613.007 4.75-.08 4.75-2.993 0-2.717-.307-3.001-3.25-3.006-1.787-.003-6.963-.295-11.5-.648l-8.25-.642v3.003m-97.93 2.991c.485 2.091.893 4.097.906 4.458.028.763 9.181 4.02 9.736 3.465.206-.205.623-1.908.927-3.784.546-3.367.484-3.434-4.793-5.193-2.94-.98-5.866-1.999-6.502-2.265-.845-.353-.919.543-.274 3.319m97.465 4.552c-.811 2.517-2.535 11.904-2.535 13.799 0 1.401.687 1.951 2.439 1.951 2.124 0 2.526-.581 3.115-4.512.372-2.482.971-4.695 1.332-4.917.36-.223 3.935.27 7.946 1.095 8.328 1.714 10.447 1.312 9.988-1.896-.281-1.968-1.529-2.506-10.32-4.451-12.044-2.665-11.468-2.613-11.965-1.069m-106.834 28.707c-3.171 2.784-3.701 3.855-3.701 7.472 0 6.54 3.791 9.294 19.253 13.983 5.708 1.731 9.969 3.722 12.25 5.725 3.104 2.725 3.497 2.849 3.497 1.103 0-4.271-6.373-8.529-19.893-13.29-8.687-3.059-11.284-6.887-7.504-11.063 1.204-1.331 1.378-2.444.701-4.475l-.901-2.704-3.702 3.249m4.522 5.22c-1.741 1.741-1.52 3.244.783 5.329 2.601 2.353 2.895 1.823 1.547-2.779-.872-2.975-1.365-3.515-2.33-2.55M64.24 214.964c-2.882 4.93-5.24 9.414-5.24 9.965 0 .982 3.923 3.552 4.429 2.902.142-.182 1.449-2.356 2.905-4.831l2.647-4.5.01 6.179c.009 6.449 1.715 9.73 4.743 9.121 2.317-.466 12.377-18.479 10.939-19.586-3.051-2.348-3.649-2.112-6.367 2.512L75.5 221.5l-.302-6.428c-.293-6.226-1.71-8.946-4.708-9.04-.556-.018-3.369 4.002-6.25 8.932m114.01-4.689c-1.238.567-2.25 1.844-2.25 2.838 0 2.08 3.099 22.242 3.485 22.674.141.159 1.458-.259 2.926-.928 2.246-1.024 2.572-1.661 2.054-4.018-.543-2.473-.198-3 2.938-4.496 3.307-1.577 3.68-1.58 5.382-.04 1.669 1.511 2.023 1.518 4.074.081 1.235-.865 2.109-1.924 1.943-2.353-.238-.615-12.278-10.399-17.302-14.06-.55-.4-2.012-.265-3.25.302m-93.107 16.85c-2.283 5.647-3.811 10.579-3.397 10.959.415.38 1.689.973 2.833 1.317 1.859.559 2.523-.5 6.283-10.022 2.312-5.855 4.076-10.775 3.919-10.931-.157-.157-1.456-.579-2.886-.938-2.504-.629-2.757-.267-6.752 9.615m77.234-8.665c-.337.879 1.13 5.973 3.262 11.32 3.26 8.176 4.192 9.667 5.868 9.386 1.096-.183 2.353-.678 2.794-1.1.44-.422-.97-5.222-3.135-10.667-3.083-7.753-4.395-9.968-6.055-10.219-1.246-.188-2.373.34-2.734 1.28m20.349 1.6c.523 2.002 1.783 2.544 2.65 1.14.272-.44-.327-1.313-1.331-1.94-1.565-.977-1.754-.863-1.319.8m-30.226 1.475c-.55.134-3.588.776-6.75 1.426-4.647.956-5.75 1.559-5.75 3.147 0 2.713 4.103 19.198 5.038 20.241.418.467 1.75.536 2.96.152 1.973-.626 2.131-1.152 1.539-5.1-.8-5.336.178-5.587 5.463-1.401 3.858 3.055 6.412 3.659 8.877 2.097 1.065-.674.458-1.703-2.675-4.534l-4.053-3.661 1.676-2.939c1.506-2.643 1.524-3.208.175-5.597-1.451-2.569-4.441-4.332-6.5-3.831m-53.773 2.842c-2.964 2.747-4.941 8.852-4.067 12.562 1.355 5.758 8.359 9.843 14.805 8.634 4.125-.774 5.127-1.972 5.979-7.141l.67-4.069-4.79-1.096c-2.635-.603-5.136-.883-5.558-.623-1.591.984-.721 4.555 1.234 5.066 1.1.288 2 .921 2 1.407 0 1.318-5.417 1.066-6.8-.317-1.934-1.934-1.467-8.249.76-10.264 2.433-2.201 6.636-1.384 7.541 1.466.399 1.258 1.513 1.998 3.007 1.998 3.046 0 3.746-1.203 2.542-4.368-2.132-5.607-12.652-7.583-17.323-3.255m25.991.359-4.782.376.282 11.194.282 11.194 4.5.323c2.475.177 6.412.037 8.75-.311 3.665-.547 4.25-.97 4.25-3.073 0-2.314-.307-2.439-6-2.439-5.333 0-6-.222-6-2 0-1.758.667-2 5.5-2 5.2 0 5.5-.136 5.5-2.5s-.3-2.5-5.5-2.5c-4.222 0-5.5-.348-5.5-1.5 0-1.152 1.278-1.5 5.5-1.5 5.444 0 5.5-.03 5.5-3 0-3.297.261-3.249-12.282-2.264m24.032 2.953c-.963.252-1.75 1.333-1.75 2.403 0 1.613.47 1.835 2.75 1.298 3.424-.807 4.675-1.893 3.804-3.303-.688-1.114-1.733-1.2-4.804-.398" fill="#1976D2" fill-rule="evenodd"/><path fill-opacity=".311" d="M106.5 2.98c-18.951 3.441-32.751 9.007-48.97 19.751C34.727 37.836 16.475 61.859 7.595 88.455c-2.853 8.543-5.663 22.847-5.487 27.926.06 1.715.756-1.381 1.548-6.881 3.297-22.905 14.608-47.337 29.798-64.361C59.765 15.652 94.474.831 134 2.206c7.795.271 11.598.147 9-.294-7.952-1.35-26.115-.818-36.5 1.068m49 1.941c41.826 9.948 74.104 37.713 90.188 77.579 3.522 8.73 4.556 9.277 1.289.681-10.975-28.876-34.041-54.581-61.326-68.344-9.465-4.774-26.277-10.483-33.151-11.256-3.78-.426-3.048-.099 3 1.34M122 22v11h3c2.889 0 3-.167 3-4.5 0-2.475.418-4.5.929-4.5 1.28 0 3.664 2.502 5.752 6.036 1.383 2.342 2.45 2.964 5.083 2.964h3.332l-3.107-4.517-3.108-4.516 2.06-2.618c2.593-3.298 2.611-5.797.059-8.349-1.644-1.644-3.333-2-9.5-2H122v11m-16.649-9.245c-1.501.25-2.339 1.322-2.776 3.551-.344 1.757-1.471 6.932-2.505 11.501l-1.879 8.307 2.615-.307c1.836-.216 2.788-1.048 3.197-2.797.456-1.951 1.401-2.623 4.362-3.104 3.232-.526 4.003-.274 5.322 1.74 1.643 2.507 2.954 2.867 5.217 1.434 1.126-.713.272-2.787-4.307-10.461-3.142-5.265-6.024-9.718-6.405-9.897-.38-.178-1.659-.164-2.841.033M146 12.81c0 .446 1.122 3.673 2.493 7.171 2.126 5.427 2.34 6.926 1.455 10.213-1.17 4.343-.665 5.806 2.004 5.806 1.915 0 3.048-1.865 3.048-5.018 0-1.02 2.462-4.677 5.471-8.127 3.831-4.394 5.105-6.506 4.25-7.049-2.374-1.508-4.687-.77-6.879 2.194-1.22 1.65-2.565 3-2.99 3-.424 0-1.3-1.763-1.946-3.918-.767-2.561-1.907-4.116-3.29-4.487-2.892-.776-3.616-.733-3.616.215m-18 4.69c0 2.361.329 2.595 3.25 2.313 2.479-.239 3.25-.788 3.25-2.313 0-1.525-.771-2.074-3.25-2.313-2.921-.282-3.25-.048-3.25 2.313m-43.773 1.339c-.988.627-.697 2.111 1.304 6.635l2.577 5.827-2.804-1.82c-1.542-1-4.455-2.904-6.472-4.229-2.951-1.938-4.065-2.198-5.691-1.327-1.971 1.054-1.913 1.328 2.276 10.781 2.364 5.335 4.7 9.826 5.191 9.98.491.155 1.531-.122 2.311-.616 1.199-.758 1.092-1.686-.694-5.984C81.062 35.289 80.429 33 80.819 33c.389 0 3.067 1.589 5.951 3.531 4.398 2.962 5.578 3.353 7.315 2.424 1.138-.61 1.849-1.684 1.579-2.389-3.118-8.124-8.228-18.563-9.082-18.551-.595.009-1.655.379-2.355.824M106 23.5c0 2.719.087 2.788 2.4 1.9 1.198-.46 1.326-1.044.547-2.5-1.43-2.671-2.947-2.362-2.947.6m76 3.206c-4.338 1.586-9 8.24-9 12.844 0 3.5 5.889 9.45 9.353 9.45 2.786 0 7.647-1.911 7.647-3.006 0-1.497-3.81-4.111-4.46-3.059-1.146 1.854-5.402 1.192-6.589-1.026-1.311-2.451.093-6.733 3.1-9.455 2.694-2.438 6.493-1.2 7.797 2.54 1.309 3.755 5.152 4.299 5.152.729 0-3.263-2.734-6.714-6.599-8.329-3.56-1.487-4.065-1.542-6.401-.688m-119.888 4.66c-.885 1.066.128 3.248 4.627 9.963 3.169 4.729 6.268 8.614 6.889 8.634.62.021 1.649-.591 2.286-1.359.919-1.108-.038-3.169-4.628-9.968-5.874-8.701-7.149-9.711-9.174-7.27M46.957 43.637C44.231 46.187 42 48.617 42 49.036c0 .419 3.209 4.198 7.132 8.398 6.839 7.323 7.21 7.567 9.021 5.928 1.842-1.667 1.823-1.777-.762-4.476-3.171-3.309-2.67-6.47.871-5.499 6.72 1.844 9.266 1.792 11.092-.225 1.795-1.984 1.76-2.037-2.014-3.085-2.112-.586-4.658-1.068-5.657-1.071-1.35-.005-1.658-.511-1.195-1.968.639-2.014-.93-5.965-2.888-7.273-2.621-1.75-5.913-.552-10.643 3.872m76.793-3.905c2.337.211 6.162.211 8.5 0 2.338-.21.425-.383-4.25-.383s-6.588.173-4.25.383M106 41.911c-19.75 5.443-36.826 16.828-48.612 32.412-4.955 6.552-12.93 22.161-13.885 27.177-.315 1.65.482.269 1.771-3.068 11.832-30.648 37.738-52.073 69.386-57.384 4.169-.7 4.355-.821 1.34-.87-1.925-.032-6.425.748-10 1.733m35.523-.923c35.99 5.29 64.896 33.084 72.932 70.125.762 3.513 1.422 5.2 1.466 3.749.12-4.002-4.547-19.172-8.048-26.159-6.396-12.763-18.51-26.649-30.198-34.614-10.262-6.994-29.808-14.242-37.655-13.964-2.972.105-2.738.239 1.503.863m-17.208 1.476c-4.4 1.913-6.614 6.38-5.189 10.467.596 1.711 1.975 3.588 3.064 4.171 1.697.908 1.932 1.905 1.645 6.98l-.335 5.922 5.168-.002c2.843-.001 5.88.271 6.75.605 1.342.515 1.582-.371 1.582-5.826 0-5.501.348-6.76 2.406-8.693 3.107-2.919 3.627-5.105 2.083-8.775-2.274-5.409-10.529-7.74-17.174-4.849m73.626 2.239c-6.576 5.533-7.074 12.217-1.29 17.296 5.03 4.415 9.438 4.147 14.467-.881 3.282-3.283 3.882-4.534 3.882-8.1 0-3.464-.608-4.826-3.4-7.618-4.379-4.379-9.003-4.615-13.659-.697m-147.76 1.604c-1.678 1.787-1.898 2.576-.974 3.5 1.703 1.703 3.223 1.481 5.259-.77C56.372 46.931 55.93 44 53.706 44c-.747 0-2.333 1.038-3.525 2.307m150.274 3.148c-2.644 2.643-3.273 7.327-1.255 9.345 3.437 3.437 10.8-1.144 10.8-6.719 0-5.227-5.446-6.726-9.545-2.626M33.677 58.183C28.623 66.221 27 69.068 27 69.89c0 .512 3.038 2.842 6.75 5.178 3.712 2.335 7.745 4.891 8.962 5.679 2.124 1.376 2.394 1.151 6.804-5.665 2.525-3.904 4.316-7.545 3.979-8.09-1.275-2.064-3.561-.846-6.117 3.258-1.456 2.338-2.773 4.399-2.927 4.581-.154.182-1.244-.185-2.422-.815l-2.142-1.147 2.607-4.449c1.434-2.446 2.333-4.892 1.997-5.434-1.259-2.038-3.506-.856-5.711 3.006-1.254 2.196-2.816 3.996-3.471 4-2.453.016-2.418-2.23.096-6.028 2.993-4.522 3.121-5.283 1.162-6.908-1.151-.956-1.72-.734-2.89 1.127M217.5 64.602c-8.429 5.053-9.5 6.197-9.5 10.153 0 2.605.855 4.3 3.507 6.952 4.151 4.151 5.195 4.049 14.856-1.444 6.757-3.842 7.702-5.134 5.246-7.173-1.09-.904-2.697-.389-7.419 2.378-6.555 3.842-9.639 4.41-10.583 1.95-1.239-3.229-.473-4.346 5.143-7.503 8.161-4.588 8.381-4.802 7.194-7.02-1.338-2.499-1.474-2.471-8.444 1.707m-115.035 9.454c-.397.642-.142 1.526.566 1.963 1.657 1.024 4.167.074 3.678-1.392-.528-1.586-3.379-1.969-4.244-.571m-83.247 10.16c-2.334 6.114-2.827 8.413-1.927 8.985 2.174 1.382 3.481.842 4.12-1.701.345-1.375 1.04-2.5 1.544-2.5.505 0 4.347 1.32 8.538 2.934l7.62 2.935.839-2.185c1.054-2.743 1.042-2.752-7.757-6.113-7.201-2.751-7.296-2.834-6.643-5.806.602-2.743-.475-4.692-2.625-4.75-.315-.008-1.984 3.682-3.709 8.201m105.253.534c.471 3.565 1.429 32.121 1.497 44.594.027 4.977.327 5.92 2.021 6.363 1.094.286 1.813.807 1.598 1.157-.215.35.915.684 2.511.742l2.902.107v-10.157c0-6.566.424-10.58 1.2-11.356.66-.66.767-1.2.238-1.2-1.636 0-1.128-9.951.562-11.02 1.095-.693 1.145-.954.186-.965-1.022-.012-1.245-2.352-1-10.506.353-11.803.539-11.509-7.28-11.509h-4.93l.495 3.75m-34.923-.161c-2.072 1.515-1.246 1.74 1.886.513 1.063-.416 1.508-1.02.989-1.341-.52-.321-1.814.051-2.875.828M226 87.889c-6.994 2.215-8.557 3.083-8.82 4.902-.379 2.62.723 2.744 7.161.807 2.562-.771 4.659-1.181 4.659-.911 0 .269-2.023 2.803-4.495 5.629-3.299 3.771-4.331 5.677-3.876 7.161.341 1.113.751 2.172.911 2.355.16.183 4.942-1.167 10.625-3 8.942-2.883 10.288-3.602 9.99-5.332-.495-2.869-.517-2.873-6.155-1-2.821.937-5.312 1.522-5.534 1.299-.222-.222 1.638-2.739 4.135-5.593 3.349-3.828 4.372-5.716 3.902-7.197-.802-2.525-2.027-2.439-12.503.88m-117.723 4.387c-5.316 1.787-6.156 2.393-5.767 4.158.251 1.136 1.335 5.891 2.408 10.566 4.759 20.718 6.109 26.955 6.414 29.636.179 1.575.583 3.539.898 4.364.315.825 1.756 6.9 3.203 13.5 2.662 12.145 3.061 13.79 6.191 25.565l1.745 6.565 5.691 1.994 5.691 1.994 1.598-3.059c.879-1.683 2.098-4.409 2.71-6.059 1.159-3.129 7.622-32.409 8.498-38.5.916-6.369 7.602-35.428 8.566-37.23.521-.974.728-1.77.46-1.77-.268 0 .122-2.026.867-4.501.745-2.476 1.053-4.688.683-4.917-1.055-.652-11.562-4.581-12.253-4.581-.622-.001-1.409 4.879-2.397 14.859-.292 2.948-.99 6.22-1.553 7.271-.562 1.051-.815 2.245-.562 2.655.253.41-.664 6.138-2.037 12.729-1.373 6.592-2.733 13.56-3.022 15.485-.884 5.895-1.89 7.042-5.172 5.898-1.567-.546-3.456-.86-4.197-.696-.741.164-1.393-.377-1.45-1.202-.058-.825-.398-2.175-.757-3-.699-1.609-6.498-30.499-6.624-33-.249-4.979-2.585-20.985-3.05-20.908-.308.051-3.359 1.033-6.782 2.184M249.57 93.5c.339 1.65 1.242 5.925 2.006 9.5.764 3.575 1.449 7.625 1.523 9 .095 1.783.267 1.986.599.706.517-1.992-2.192-16.407-3.749-19.945-.861-1.956-.912-1.856-.379.739M12.939 106.478c-.664 4.114-1.259 7.826-1.323 8.25-.134.891 19.336 4.48 20.972 3.867.598-.224 1.611-3.574 2.25-7.444 1.504-9.107 1.5-9.151-.771-9.151-2.014 0-2.519 1.01-3.625 7.25-.55 3.101-1.078 3.75-3.053 3.75-2.6 0-2.699-.447-1.489-6.698.636-3.287.498-4.319-.634-4.753-2.291-.88-3.103.179-3.824 4.987-.739 4.93-1.359 5.752-3.391 4.495-1.073-.663-1.146-1.893-.35-5.915 1.083-5.48.896-6.116-1.795-6.116-1.416 0-1.997 1.462-2.967 7.478m29.14.105c.048 1.165.285 1.402.604.605.289-.722.253-1.585-.079-1.917-.332-.332-.568.258-.525 1.312M41.158 111c0 1.375.227 1.938.504 1.25.278-.687.278-1.812 0-2.5-.277-.687-.504-.125-.504 1.25m189.461.024c-5.056 1.532-7.619 4.793-7.619 9.696 0 3.34.595 4.966 2.523 6.894 1.388 1.388 3.301 2.376 4.25 2.195 2.267-.432 2.972-4.809.775-4.809-.875 0-2.128-1.178-2.783-2.617-1.053-2.311-.92-2.839 1.132-4.5 2.627-2.128 9.056-2.53 10.903-.683 1.72 1.72 1.48 5.544-.414 6.604-1.872 1.047-1.052 5.196 1.026 5.196 1.797 0 4.313-3.024 5.083-6.108.793-3.18-1.609-9.355-4.16-10.693-3.039-1.594-7.661-2.1-10.716-1.175M39.543 122.25c-.35 4.537-.253 10.95.216 14.25.712 5.021.854 3.674.869-8.25.01-7.838-.087-14.25-.215-14.25-.129 0-.52 3.713-.87 8.25M254.392 128c0 7.425.157 10.463.35 6.75.192-3.713.192-9.787 0-13.5-.193-3.713-.35-.675-.35 6.75m-38.022 0c0 5.775.165 8.137.367 5.25.202-2.887.202-7.612 0-10.5s-.367-.525-.367 5.25M1.588 132c.248 6.875.875 14.075 1.393 16 .778 2.889.837 2.541.34-2-.331-3.025-.959-10.225-1.394-16l-.792-10.5.453 12.5M11 123.84c0 2.547.562 2.947 7.082 5.047 3.896 1.255 6.838 2.527 6.538 2.827-.3.3-3.375 1.517-6.833 2.704-5.55 1.906-6.326 2.493-6.617 5.008-.235 2.033.052 2.714 1 2.378.732-.258 5.706-1.991 11.055-3.85 14.554-5.058 14.239-7.608-1.628-13.167L11 121.073v2.767m212 13.31c0 2.742.184 2.85 4.853 2.85 2.67 0 7.62.289 11 .642 6.116.64 6.147.63 6.147-1.954 0-2.979-1.276-3.337-14.25-3.995L223 134.3v2.85m-7.864 3.988c-.075 1.451-1.288 6.626-2.695 11.5-7.429 25.727-26.614 46.797-51.941 57.042-4.4 1.78-7.325 3.249-6.5 3.266 2.426.048 16.005-6.223 22.5-10.391 12.194-7.825 24.635-21.813 31.393-35.298 3.786-7.555 8.43-23.258 7.821-26.447-.408-2.136-.452-2.112-.578.328m37.08 8.268c-2.665 17.019-11.859 38.755-22.496 53.188-7.258 9.847-19.836 21.914-30.255 29.025-10.89 7.433-17.186 10.692-28.965 14.994-4.95 1.808-8.464 3.31-7.81 3.337.655.028 4.48-1.132 8.5-2.576 41.344-14.854 72.605-51.115 81.373-94.389.88-4.344 1.441-8.705 1.246-9.691-.195-.987-.912 1.764-1.593 6.112M41.158 145c0 1.375.227 1.938.504 1.25.278-.687.278-1.812 0-2.5-.277-.687-.504-.125-.504 1.25m180.369 1.25c-2.242 9.862-2.528 12.149-1.634 13.043 1.883 1.883 3.862-.171 4.543-4.713.784-5.229.789-5.23 10.564-3.08 3.575.786 6.785 1.446 7.133 1.465.349.019.85-1.097 1.115-2.48.531-2.782 1.209-2.477-11.063-4.988-9.516-1.947-10.053-1.909-10.658.753m-179.448 3.333c.048 1.165.285 1.402.604.605.289-.722.253-1.585-.079-1.917-.332-.332-.568.258-.525 1.312m-38.018 4.155c-.103 3.791 5.941 21.289 10.578 30.629 6.346 12.78 13.594 22.853 23.861 33.162 30.723 30.849 74.455 43.681 117.319 34.424 2.925-.631 5.13-1.337 4.899-1.568-.231-.231-3.749.331-7.819 1.248-9.516 2.146-36.276 2.425-46.899.489-48.321-8.804-86.893-44.845-99.931-93.372-1.071-3.988-1.975-6.243-2.008-5.012m38.988-.909c-.087 2.357 5.161 14.472 9.365 21.619 5.378 9.145 19.089 22.924 28.785 28.928 13.882 8.596 32.581 13.836 48.123 13.484 4.751-.107 3.637-.339-4.822-1.005-37.451-2.947-65.802-23.849-79.068-58.295-1.284-3.333-2.356-5.462-2.383-4.731m84.965 50.421c.016 8.417.717 11.75 2.472 11.75 1.447 0 2.487-5.253 2.503-12.643.011-4.968-.879-6.357-4.071-6.357-.505 0-.912 3.262-.904 7.25m-59.358 4.983c-7.135 11.451-9.807 17.057-8.52 17.872 2.494 1.58 3.566.933 5.973-3.605 1.313-2.475 2.726-4.5 3.139-4.5.414 0 .752 3.134.752 6.965 0 6.037.278 7.113 2.086 8.081 1.147.614 2.23.967 2.407.785C75.408 232.89 85 215.724 85 215.028c0-1.081-2.95-2.177-4.043-1.501-.474.293-1.867 2.319-3.094 4.503-1.97 3.504-4.075 5.315-3.745 3.22.066-.412.066-3.547 0-6.965-.096-5.082-.476-6.406-2.084-7.267-1.608-.86-2.223-.639-3.378 1.215m109.062 3.017c-1.55 1.164-1.551 2.005-.024 12.25.902 6.05 1.756 11.154 1.898 11.341.141.188 1.191.045 2.333-.317 1.539-.489 2.075-1.498 2.075-3.906 0-2.688.567-3.518 3.295-4.819 2.829-1.349 3.564-1.375 5.191-.185 2.338 1.709 2.684 1.714 4.937.066 1.647-1.205 1.015-1.951-7.198-8.5-4.951-3.949-9.417-7.18-9.923-7.18-.506 0-1.669.563-2.584 1.25m-29.241 2.337c-.562.235-3.712.858-7 1.382l-5.977.955 6.071-.428c5.313-.375 13.408-2.395 9.429-2.354-.825.009-1.96.209-2.523.445m-60.638 8.239C81.497 236.469 81.049 239 84.8 239c1.419 0 2.736-2.208 5.531-9.269C92.349 224.632 94 219.96 94 219.347c0-.612-.931-1.357-2.068-1.655-1.704-.445-2.425.284-4.093 4.134m75.911-4.137c-.963.252-1.75.787-1.75 1.19 0 1.161 7.09 18.536 7.919 19.404.989 1.036 4.081-.191 4.081-1.621 0-1.745-7.265-19.677-7.919-19.546-.319.064-1.368.322-2.331.573m18.25 2.252c0 2.399 1.155 3.199 2.983 2.069 1.148-.709 1.162-1.13.08-2.434-1.773-2.137-3.063-1.983-3.063.365m-81.756 3.551c-7.148 5.163-6.901 16.637.44 20.391 2.474 1.265 10.204 1.476 12.01.327 1.355-.861 3.438-9.021 2.451-9.601-.355-.208-2.557-.695-4.893-1.081-3.546-.587-4.36-.409-4.93 1.075-.375.977-.263 1.924.248 2.103.512.18 1.605.769 2.43 1.31 1.333.875 1.333 1.093 0 1.969-2.278 1.495-3.792 1.223-6.113-1.098-1.639-1.639-1.986-2.891-1.548-5.589.31-1.912 1.091-4.111 1.735-4.887 1.813-2.185 6.58-1.743 8.343.773 2.215 3.163 5.583 3.455 5.583.484 0-5.618-10.713-9.818-15.756-6.176m45.076-.144c-2.3.634-4.462 1.44-4.806 1.791-.558.57.151 3.947 3.602 17.173.815 3.124 1.391 3.756 3.189 3.5 1.687-.24 2.129-.891 1.911-2.812l-.5-4.392c-.369-3.231 1.974-2.883 6.182.919 3.506 3.167 4.46 3.553 7.265 2.937l3.228-.709-4.206-3.923c-3.487-3.253-4.033-4.247-3.196-5.812 1.557-2.909 1.203-6.537-.818-8.365-2.079-1.882-5.787-1.978-11.851-.307m-24.941 12.848c.374 6.158.779 11.226.901 11.261.121.036 3.959-.088 8.529-.274 7.81-.319 8.291-.467 8-2.459-.279-1.916-.863-2.094-6.059-1.849-5.58.262-5.75.194-5.75-2.302 0-2.421.296-2.573 5-2.573 4.667 0 5-.167 5-2.5 0-2.326-.34-2.5-4.893-2.5-3.275 0-5.071-.464-5.431-1.402-.825-2.151.205-2.598 5.991-2.598 4.666 0 5.333-.25 5.333-2 0-1.846-.667-2-8.65-2h-8.651l.68 11.196m26.725-8.282c-1.752 1.11-.71 4.086 1.43 4.086 2.496 0 5.466-1.921 5.466-3.535 0-1.641-4.594-2.008-6.896-.551" fill="#1976D2" fill-rule="evenodd"/><path fill-opacity=".405" d="M123 22c0 10.333.121 11 2 11 1.704 0 2-.667 2-4.5 0-3.796.305-4.5 1.952-4.5 1.188 0 3.164 1.761 5.048 4.5 2.263 3.289 3.763 4.5 5.574 4.5 2.407 0 2.434-.078.947-2.75-.842-1.512-2.236-3.729-3.099-4.926-1.456-2.021-1.42-2.254.505-3.285 1.475-.789 2.073-2.093 2.073-4.517 0-4.796-2.839-6.522-10.723-6.522H123v11m25.672-2.906c2.158 5.822 2.377 7.435 1.543 11.346-.535 2.508-.614 4.56-.176 4.56.439 0 1.476.261 2.306.579 1.155.443 1.665-.466 2.177-3.878.548-3.651 1.653-5.429 6.11-9.829 5.128-5.062 5.31-5.407 3.155-5.975-1.719-.452-3.18.244-5.882 2.802l-3.594 3.403-1.697-4.442c-1.227-3.212-2.356-4.569-4.077-4.898l-2.381-.455 2.516 6.787M103.52 14.25c-1.304 3.909-4.494 21.11-4.005 21.599 1.018 1.017 3.973-1.476 4.294-3.623.234-1.564 1.313-2.24 4.409-2.763 3.517-.594 4.337-.378 5.765 1.515 1.036 1.373 2.48 2.078 3.82 1.865 2.019-.321 1.792-.96-3.574-10.073-4.566-7.755-6.192-9.733-8.01-9.75-1.255-.011-2.469.543-2.699 1.23M127 17.5c0 2.458.255 2.597 4.25 2.307 3.481-.251 4.25-.669 4.25-2.307s-.769-2.056-4.25-2.307c-3.995-.29-4.25-.151-4.25 2.307m-41.919 1.429c-1.198.758-1.079 1.717.76 6.141 1.198 2.884 1.987 5.436 1.752 5.67-.234.234-2.82-1.186-5.746-3.157-5.311-3.577-8.219-4.407-9.302-2.656-.315.509 1.326 5.201 3.647 10.425 3.598 8.098 4.472 9.363 5.931 8.582 1.596-.854 1.57-1.254-.394-5.903-1.159-2.742-1.816-5.277-1.46-5.633.355-.356 2.966 1.02 5.802 3.058 3.764 2.703 5.79 3.545 7.503 3.115l2.347-.589-1.84-4.241c-4.381-10.096-6.992-15.74-7.276-15.726-.168.009-.944.42-1.724.914m20.549 3.321c-.934 3.485-.802 3.75 1.87 3.75 2.749 0 3.154-1.554 1.108-4.25-1.742-2.294-2.252-2.209-2.978.5m73.587 6.311c-4.832 3.384-6.765 11.784-3.714 16.14 2.077 2.966 7.481 4.636 10.853 3.354 2.842-1.081 3.125-1.746 1.7-3.998-.725-1.146-1.419-1.213-3.368-.325-1.929.879-2.909.801-4.572-.363-2.645-1.853-2.688-4.919-.127-9.119 1.48-2.428 2.694-3.25 4.796-3.25 3.185 0 5.215 1.593 5.215 4.093 0 1.405 1.851 2.907 3.582 2.907.642 0 .496-4.633-.203-6.455-1.541-4.015-10.112-5.821-14.162-2.984M62.756 31.077c-1.564.911-1.12 1.946 4.286 9.985 5.372 7.989 6.245 8.855 7.996 7.918 1.85-.991 1.613-1.576-4.062-10.016-3.315-4.93-6.128-8.95-6.252-8.934-.123.017-1.009.488-1.968 1.047m-12.256 9.8c-1.65 1.028-4.307 3.261-5.904 4.962l-2.904 3.092 6.847 7.284c7.306 7.773 9.099 8.892 10.094 6.299.397-1.035-.407-2.712-2.197-4.58-4.03-4.207-2.302-5.723 4.812-4.222 4.62.975 5.474.894 7.101-.678 1.786-1.727 1.677-1.828-3.25-3.01C60.228 48.855 60 48.651 60 45.457c0-2.322-.679-3.819-2.223-4.9-2.839-1.989-3.627-1.954-7.277.32m76.685 1.114c-7.679 1.813-10.342 8.292-5.685 13.827 1.934 2.298 2.5 4.098 2.5 7.951 0 4.779.127 5.006 3.125 5.606 8.366 1.673 9.829.6 9.861-7.231.009-2.105.946-4.462 2.514-6.326 3.461-4.114 3.262-7.999-.577-11.229-1.692-1.424-3.68-2.589-4.418-2.589s-1.941-.178-2.673-.396c-.733-.217-2.824-.043-4.647.387m73.085 1.492c-3.794 1.649-7.261 6.832-7.266 10.863-.009 6.986 7.802 12.015 14.388 9.263 3.862-1.613 7.598-6.728 7.604-10.409.007-3.868-2.939-8.278-6.53-9.779-4.089-1.708-4.126-1.708-8.196.062M50.25 45.944c-2.653 2.213-2.807 3.348-.693 5.104 1.311 1.087 1.967.882 4.141-1.291 4.367-4.367 1.292-7.768-3.448-3.813m149.437 3.861c-3.133 3.27-3.429 6.213-.858 8.54 2.89 2.616 6.655 2.057 9.582-1.422 3.053-3.628 3.271-5.996.76-8.268-2.735-2.476-6.441-2.026-9.484 1.15M31.434 62.671c-1.996 3.119-3.809 6.157-4.03 6.75-.36.968 15.596 11.595 17.369 11.568 1.327-.02 8.336-12.263 7.808-13.638-.906-2.361-2.317-1.478-5.028 3.149-2.699 4.605-3.224 4.947-5.971 3.893-2.189-.84-1.986-2.334.888-6.563 2.199-3.236 2.3-3.776.924-4.918-1.689-1.401-1.992-1.136-4.956 4.338-1.599 2.952-4.161 3.635-5.041 1.343-.297-.774.634-3.266 2.068-5.537 2.441-3.867 2.624-6.056.507-6.056-.501 0-2.543 2.552-4.538 5.671m185.282 2.861c-8.304 4.861-9.631 6.93-7.702 12.005 2.742 7.212 6.029 8.001 14.765 3.544 8.583-4.38 9.552-5.261 8.005-7.288-1.175-1.541-1.834-1.353-7.784 2.224-3.575 2.149-7.052 3.924-7.727 3.945-.675.021-1.972-1.099-2.882-2.488-1.502-2.292-1.51-2.685-.092-4.25.859-.948 4.067-3.074 7.128-4.724 5.55-2.991 6.242-3.898 4.759-6.234-.574-.902-2.845-.027-8.47 3.266M103 75c0 .55.675 1 1.5 1s1.5-.45 1.5-1-.675-1-1.5-1-1.5.45-1.5 1m-83.425 9.561c-2.418 6.333-2.67 7.762-1.498 8.487 1.013.626 1.8.108 2.798-1.839.764-1.49 1.498-2.839 1.63-2.999.133-.159 3.745 1.102 8.027 2.803 6.127 2.434 7.961 2.815 8.61 1.79 1.42-2.242.477-3.008-7.189-5.844-4.477-1.656-7.404-3.296-7.33-4.108.067-.743.292-2.235.5-3.315.224-1.17-.233-2.09-1.132-2.277-1.061-.22-2.371 1.947-4.416 7.302m105.952 20.954c.4 13.634 1.032 25.929 1.405 27.322.621 2.324 5.432 5.132 6.671 3.894.775-.775 2.814-53.648 2.096-54.365-.36-.36-2.96-.877-5.777-1.148l-5.123-.492.728 24.789M230.5 87.053c-3.3 1.07-7.687 2.413-9.75 2.985-3.86 1.07-4.275 1.587-2.947 3.678.6.944 1.875.884 5.692-.264 2.705-.815 5.281-1.36 5.723-1.213.443.148-1.225 2.59-3.706 5.426-4.344 4.965-5.869 9.333-3.262 9.337 3.313.006 19.745-5.638 19.747-6.783.005-2.089-2.249-2.348-7.272-.837-2.6.783-4.904 1.129-5.12.771-.216-.359 1.751-3.077 4.372-6.041 3.167-3.582 4.601-6.012 4.277-7.25-.583-2.228-.269-2.236-7.754.191m-84.908 4.806c-.26.902-.756 4.341-1.102 7.641-.666 6.346-5.59 33.472-8.099 44.615l-1.49 6.615-3.7-1.278c-3.263-1.127-3.775-1.082-4.324.385-.427 1.139-.997.245-1.809-2.837-.653-2.475-1.368-5.175-1.588-6-.221-.825-.613-2.625-.871-4s-1.369-7-2.469-12.5c-2.73-13.654-4.14-23.507-4.14-28.942 0-5.198-.178-5.264-7.656-2.808-5.94 1.951-6.029 2.184-3.929 10.29.778 3.003 3.942 17.16 7.031 31.46 3.089 14.3 7.11 31.822 8.935 38.938l3.318 12.939 5.298 1.801c5.029 1.709 5.366 1.712 6.639.061 2.83-3.673 5.448-13.85 11.381-44.239 2.2-11.275 5.57-26.78 7.487-34.455 1.918-7.675 3.151-14.278 2.741-14.674-.41-.395-3.093-1.604-5.962-2.686-4.752-1.793-5.259-1.822-5.691-.326m-132.41 15.286c-.674 3.93-1.01 7.361-.746 7.624.512.513 19.902 4.133 20.302 3.791.599-.511 3.006-15.145 2.601-15.81-.251-.412-1.09-.75-1.864-.75-.927 0-1.626 1.658-2.052 4.872-.827 6.234-1.47 7.19-4.329 6.442-2.186-.571-2.295-.951-1.706-5.962.521-4.425.363-5.352-.911-5.352-1.695 0-2.021.696-2.956 6.312-.534 3.204-.985 3.762-2.828 3.5-2.321-.331-2.402-.827-1.247-7.562.645-3.754.51-4.25-1.155-4.25-1.555 0-2.098 1.246-3.109 7.145m215.318 5.016c-6.102 3.355-7.286 10.207-2.577 14.916 3.426 3.426 4.654 3.648 5.355.969.345-1.321-.266-2.463-1.884-3.523-2.595-1.701-3.215-5.633-1.144-7.26 2-1.57 7.545-2.291 10.114-1.315 3.427 1.303 4.075 3.967 1.735 7.132-1.665 2.252-1.78 2.974-.708 4.44 1.199 1.64 1.415 1.604 3.444-.574 3.283-3.524 2.946-9.319-.758-13.023-2.346-2.346-3.778-2.917-7.25-2.893-2.38.017-5.227.526-6.327 1.131M11.496 124.193c.132 1.788 1.485 2.634 7.339 4.585 3.948 1.316 6.971 2.727 6.719 3.135-.252.408-3.207 1.573-6.565 2.59-6.101 1.847-9.551 4.96-6.708 6.051 1.12.43 8.977-2.084 18.969-6.07.962-.384 1.75-1.713 1.75-2.955 0-1.961-1.35-2.732-10.312-5.893-5.671-2-10.546-3.636-10.833-3.636-.286 0-.448.987-.359 2.193M223 136.741c0 1.642.897 2.088 5.25 2.611 9.694 1.164 15.474.809 16.167-.995.346-.904.507-1.757.357-1.897-.151-.139-5.112-.579-11.024-.976-10.291-.692-10.75-.638-10.75 1.257m-1.848 12.856c-1.504 7.487-1.453 9.403.248 9.403.854 0 1.869-1.952 2.6-5 .66-2.75 1.492-4.984 1.85-4.965.357.019 3.575.679 7.15 1.465 8.669 1.907 10 1.863 10-.33 0-1.484-1.558-2.159-8.25-3.573-4.537-.959-9.194-1.967-10.348-2.241-1.855-.439-2.231.167-3.25 5.241m-91.939 55.67c.361 11.606 2.18 11.86 2.574.36.236-6.885.006-8.493-1.287-8.989-1.375-.527-1.538.568-1.287 8.629m-59.947 2.983C67.386 210.651 60 223.857 60 224.817c0 .533.651 1.219 1.446 1.524.96.368 2.558-1.193 4.75-4.643L69.5 216.5l.298 7.471c.282 7.068 1.074 8.974 3.744 9.014.573.008 2.798-3.022 4.943-6.735 2.145-3.713 4.519-7.73 5.275-8.928 1.226-1.94 1.157-2.296-.629-3.252-1.78-.952-2.31-.511-4.727 3.929-1.497 2.75-3.1 5.001-3.563 5.001-.463 0-.841-3.327-.841-7.393 0-5.819-.337-7.522-1.582-8-2.07-.795-2.018-.805-3.152.643m109.231 3.129c-1.713 1.252-1.755 1.951-.609 10.233 1.816 13.133 1.957 13.541 4.245 12.317 1.304-.698 1.836-1.894 1.647-3.701-.228-2.176.4-3.039 3.399-4.668 3.479-1.891 3.781-1.907 5.569-.288 1.651 1.494 2.137 1.533 3.82.302 1.061-.776 1.705-1.577 1.43-1.781-.274-.204-3.873-3.032-7.998-6.284s-7.987-6.265-8.582-6.694c-.595-.43-1.91-.176-2.921.564m3.254 6.203c-.256.256-.247 1.602.018 2.991.525 2.744 3.489 3.053 3.992.416.279-1.458-3.094-4.323-4.01-3.407m-93.202 3.668c-4.262 10.271-6.516 16.115-6.297 16.323.136.13 1.092.392 2.123.582 1.528.281 2.579-1.402 5.687-9.102 2.097-5.195 3.59-9.808 3.317-10.25-1.13-1.827-3.569-.592-4.83 2.447m74.22-2.685c-.311.31 1.222 4.985 3.405 10.387 3.37 8.337 4.262 9.747 5.898 9.319 1.061-.277 1.928-.769 1.928-1.092 0-.324-1.67-4.771-3.711-9.884-2.548-6.381-4.22-9.295-5.334-9.295-.892 0-1.876.254-2.186.565m-12.269 4.127c-7.901 1.817-9.5 2.501-9.5 4.064 0 1.642 4.014 18.411 4.569 19.085.154.188 1.177.057 2.274-.291 1.721-.546 1.868-1.071 1.075-3.835-1.925-6.714-.033-7.559 6.082-2.715 2.178 1.725 4.984 3 6.602 3h2.814l-4.256-4.337c-3.736-3.807-4.068-4.495-2.709-5.623 2.152-1.785 1.935-5.654-.451-8.04-2.005-2.005-2.785-2.162-6.5-1.308m-50.577 1.291c-2.687 1.572-5.242 8.504-4.531 12.294 1.025 5.461 4.766 8.223 11.139 8.223 6.175 0 7.062-.63 7.989-5.676.66-3.596.591-3.699-3.173-4.745-5.113-1.419-5.347-1.384-5.347.804 0 1.074.905 2.12 2.105 2.434 2.885.755 1.864 3.11-1.521 3.508-3.905.46-6.584-2.303-6.584-6.791 0-3.486 2.816-8.034 4.974-8.034 2.359 0 6.026 2.115 6.026 3.475 0 .96.926 1.525 2.5 1.525 3.239 0 3.258-2.333.045-5.545-1.936-1.937-3.467-2.449-7.25-2.425-2.637.017-5.505.446-6.372.953m22.577 1.688c-1.873.373-1.98 1.068-1.685 10.903l.315 10.505 8.174-.29c6.759-.239 8.23-.583 8.499-1.99.273-1.431-.674-1.748-5.979-2-5.241-.249-6.364-.616-6.662-2.179-.482-2.528 1.473-3.586 6.661-3.605 3.575-.012 4.265-.318 3.987-1.765-.268-1.388-1.37-1.75-5.324-1.75-4.409 0-5.023-.26-5.306-2.25-.297-2.095.053-2.25 5.084-2.25 5.854 0 6.887-.443 6.06-2.598-.52-1.354-8.561-1.78-13.824-.731m25.75 1.025c-1.576.31-2.25 1.153-2.25 2.815 0 3.038.754 3.398 4.814 2.297 2.636-.715 3.249-1.347 3-3.093-.325-2.274-1.714-2.778-5.564-2.019" fill="#1976D2" fill-rule="evenodd"/></svg>