<svg width="464" height="229" viewBox="0 0 464 229" fill="none" xmlns="http://www.w3.org/2000/svg">
<path d="M325.602 178.445V180H319.562V178.445H325.602ZM320.117 168.625V180H318.156V168.625H320.117ZM324.812 173.375V174.906H319.562V173.375H324.812ZM325.562 168.625V170.188H319.562V168.625H325.562ZM328.883 173.352V180H327V171.547H328.773L328.883 173.352ZM328.547 175.461L327.938 175.453C327.943 174.854 328.026 174.305 328.188 173.805C328.354 173.305 328.583 172.875 328.875 172.516C329.172 172.156 329.526 171.88 329.938 171.688C330.349 171.49 330.807 171.391 331.312 171.391C331.719 171.391 332.086 171.448 332.414 171.562C332.747 171.672 333.031 171.852 333.266 172.102C333.505 172.352 333.688 172.677 333.812 173.078C333.938 173.474 334 173.961 334 174.539V180H332.109V174.531C332.109 174.125 332.049 173.805 331.93 173.57C331.815 173.331 331.646 173.161 331.422 173.062C331.203 172.958 330.93 172.906 330.602 172.906C330.279 172.906 329.99 172.974 329.734 173.109C329.479 173.245 329.263 173.43 329.086 173.664C328.914 173.898 328.781 174.169 328.688 174.477C328.594 174.784 328.547 175.112 328.547 175.461ZM339.648 180.156C339.023 180.156 338.458 180.055 337.953 179.852C337.453 179.643 337.026 179.354 336.672 178.984C336.323 178.615 336.055 178.18 335.867 177.68C335.68 177.18 335.586 176.641 335.586 176.062V175.75C335.586 175.089 335.682 174.49 335.875 173.953C336.068 173.417 336.336 172.958 336.68 172.578C337.023 172.193 337.43 171.898 337.898 171.695C338.367 171.492 338.875 171.391 339.422 171.391C340.026 171.391 340.555 171.492 341.008 171.695C341.461 171.898 341.836 172.185 342.133 172.555C342.435 172.919 342.659 173.354 342.805 173.859C342.956 174.365 343.031 174.922 343.031 175.531V176.336H336.5V174.984H341.172V174.836C341.161 174.497 341.094 174.18 340.969 173.883C340.849 173.586 340.664 173.346 340.414 173.164C340.164 172.982 339.831 172.891 339.414 172.891C339.102 172.891 338.823 172.958 338.578 173.094C338.339 173.224 338.138 173.414 337.977 173.664C337.815 173.914 337.69 174.216 337.602 174.57C337.518 174.919 337.477 175.312 337.477 175.75V176.062C337.477 176.432 337.526 176.776 337.625 177.094C337.729 177.406 337.88 177.68 338.078 177.914C338.276 178.148 338.516 178.333 338.797 178.469C339.078 178.599 339.398 178.664 339.758 178.664C340.211 178.664 340.615 178.573 340.969 178.391C341.323 178.208 341.63 177.951 341.891 177.617L342.883 178.578C342.701 178.844 342.464 179.099 342.172 179.344C341.88 179.583 341.523 179.779 341.102 179.93C340.685 180.081 340.201 180.156 339.648 180.156ZM346.391 173.156V180H344.508V171.547H346.305L346.391 173.156ZM348.977 171.492L348.961 173.242C348.846 173.221 348.721 173.206 348.586 173.195C348.456 173.185 348.326 173.18 348.195 173.18C347.872 173.18 347.589 173.227 347.344 173.32C347.099 173.409 346.893 173.539 346.727 173.711C346.565 173.878 346.44 174.081 346.352 174.32C346.263 174.56 346.211 174.828 346.195 175.125L345.766 175.156C345.766 174.625 345.818 174.133 345.922 173.68C346.026 173.227 346.182 172.828 346.391 172.484C346.604 172.141 346.87 171.872 347.188 171.68C347.51 171.487 347.883 171.391 348.305 171.391C348.419 171.391 348.542 171.401 348.672 171.422C348.807 171.443 348.909 171.466 348.977 171.492ZM355.414 171.547H357.125V179.766C357.125 180.526 356.964 181.172 356.641 181.703C356.318 182.234 355.867 182.638 355.289 182.914C354.711 183.195 354.042 183.336 353.281 183.336C352.958 183.336 352.599 183.289 352.203 183.195C351.812 183.102 351.432 182.951 351.062 182.742C350.698 182.539 350.393 182.271 350.148 181.938L351.031 180.828C351.333 181.188 351.667 181.451 352.031 181.617C352.396 181.784 352.779 181.867 353.18 181.867C353.612 181.867 353.979 181.786 354.281 181.625C354.589 181.469 354.826 181.237 354.992 180.93C355.159 180.622 355.242 180.247 355.242 179.805V173.461L355.414 171.547ZM349.672 175.867V175.703C349.672 175.062 349.75 174.479 349.906 173.953C350.062 173.422 350.286 172.966 350.578 172.586C350.87 172.201 351.224 171.906 351.641 171.703C352.057 171.495 352.529 171.391 353.055 171.391C353.602 171.391 354.068 171.49 354.453 171.688C354.844 171.885 355.169 172.169 355.43 172.539C355.69 172.904 355.893 173.341 356.039 173.852C356.19 174.357 356.302 174.919 356.375 175.539V176.062C356.307 176.667 356.193 177.219 356.031 177.719C355.87 178.219 355.656 178.651 355.391 179.016C355.125 179.38 354.797 179.661 354.406 179.859C354.021 180.057 353.565 180.156 353.039 180.156C352.523 180.156 352.057 180.049 351.641 179.836C351.229 179.622 350.875 179.323 350.578 178.938C350.286 178.552 350.062 178.099 349.906 177.578C349.75 177.052 349.672 176.482 349.672 175.867ZM351.555 175.703V175.867C351.555 176.253 351.591 176.612 351.664 176.945C351.742 177.279 351.859 177.573 352.016 177.828C352.177 178.078 352.38 178.276 352.625 178.422C352.875 178.562 353.169 178.633 353.508 178.633C353.951 178.633 354.312 178.539 354.594 178.352C354.88 178.164 355.099 177.911 355.25 177.594C355.406 177.271 355.516 176.911 355.578 176.516V175.102C355.547 174.794 355.482 174.508 355.383 174.242C355.289 173.977 355.161 173.745 355 173.547C354.839 173.344 354.635 173.188 354.391 173.078C354.146 172.964 353.857 172.906 353.523 172.906C353.185 172.906 352.891 172.979 352.641 173.125C352.391 173.271 352.185 173.471 352.023 173.727C351.867 173.982 351.75 174.279 351.672 174.617C351.594 174.956 351.555 175.318 351.555 175.703ZM361.531 179.078L363.828 171.547H365.844L362.453 181.289C362.375 181.497 362.273 181.724 362.148 181.969C362.023 182.214 361.859 182.445 361.656 182.664C361.458 182.888 361.211 183.068 360.914 183.203C360.617 183.344 360.258 183.414 359.836 183.414C359.669 183.414 359.508 183.398 359.352 183.367C359.201 183.341 359.057 183.312 358.922 183.281L358.914 181.844C358.966 181.849 359.029 181.854 359.102 181.859C359.18 181.865 359.242 181.867 359.289 181.867C359.602 181.867 359.862 181.828 360.07 181.75C360.279 181.677 360.448 181.557 360.578 181.391C360.714 181.224 360.828 181 360.922 180.719L361.531 179.078ZM360.234 171.547L362.242 177.875L362.578 179.859L361.273 180.195L358.203 171.547H360.234ZM373.453 180H371.57V170.734C371.57 170.104 371.688 169.576 371.922 169.148C372.161 168.716 372.503 168.391 372.945 168.172C373.388 167.948 373.911 167.836 374.516 167.836C374.703 167.836 374.888 167.849 375.07 167.875C375.253 167.896 375.43 167.93 375.602 167.977L375.555 169.43C375.451 169.404 375.336 169.385 375.211 169.375C375.091 169.365 374.961 169.359 374.82 169.359C374.534 169.359 374.286 169.414 374.078 169.523C373.875 169.628 373.719 169.781 373.609 169.984C373.505 170.188 373.453 170.438 373.453 170.734V180ZM375.195 171.547V172.922H370.273V171.547H375.195ZM376.203 175.867V175.688C376.203 175.078 376.292 174.513 376.469 173.992C376.646 173.466 376.901 173.01 377.234 172.625C377.573 172.234 377.984 171.932 378.469 171.719C378.958 171.5 379.51 171.391 380.125 171.391C380.745 171.391 381.297 171.5 381.781 171.719C382.271 171.932 382.685 172.234 383.023 172.625C383.362 173.01 383.62 173.466 383.797 173.992C383.974 174.513 384.062 175.078 384.062 175.688V175.867C384.062 176.477 383.974 177.042 383.797 177.562C383.62 178.083 383.362 178.539 383.023 178.93C382.685 179.315 382.273 179.617 381.789 179.836C381.305 180.049 380.755 180.156 380.141 180.156C379.521 180.156 378.966 180.049 378.477 179.836C377.992 179.617 377.581 179.315 377.242 178.93C376.904 178.539 376.646 178.083 376.469 177.562C376.292 177.042 376.203 176.477 376.203 175.867ZM378.086 175.688V175.867C378.086 176.247 378.125 176.607 378.203 176.945C378.281 177.284 378.404 177.581 378.57 177.836C378.737 178.091 378.951 178.292 379.211 178.438C379.471 178.583 379.781 178.656 380.141 178.656C380.49 178.656 380.792 178.583 381.047 178.438C381.307 178.292 381.521 178.091 381.688 177.836C381.854 177.581 381.977 177.284 382.055 176.945C382.138 176.607 382.18 176.247 382.18 175.867V175.688C382.18 175.312 382.138 174.958 382.055 174.625C381.977 174.286 381.852 173.987 381.68 173.727C381.513 173.466 381.299 173.263 381.039 173.117C380.784 172.966 380.479 172.891 380.125 172.891C379.771 172.891 379.464 172.966 379.203 173.117C378.948 173.263 378.737 173.466 378.57 173.727C378.404 173.987 378.281 174.286 378.203 174.625C378.125 174.958 378.086 175.312 378.086 175.688ZM387.531 173.156V180H385.648V171.547H387.445L387.531 173.156ZM390.117 171.492L390.102 173.242C389.987 173.221 389.862 173.206 389.727 173.195C389.596 173.185 389.466 173.18 389.336 173.18C389.013 173.18 388.729 173.227 388.484 173.32C388.24 173.409 388.034 173.539 387.867 173.711C387.706 173.878 387.581 174.081 387.492 174.32C387.404 174.56 387.352 174.828 387.336 175.125L386.906 175.156C386.906 174.625 386.958 174.133 387.062 173.68C387.167 173.227 387.323 172.828 387.531 172.484C387.745 172.141 388.01 171.872 388.328 171.68C388.651 171.487 389.023 171.391 389.445 171.391C389.56 171.391 389.682 171.401 389.812 171.422C389.948 171.443 390.049 171.466 390.117 171.492ZM399.156 171.547V172.922H394.391V171.547H399.156ZM395.766 169.477H397.648V177.664C397.648 177.924 397.685 178.125 397.758 178.266C397.836 178.401 397.943 178.492 398.078 178.539C398.214 178.586 398.372 178.609 398.555 178.609C398.685 178.609 398.81 178.602 398.93 178.586C399.049 178.57 399.146 178.555 399.219 178.539L399.227 179.977C399.07 180.023 398.888 180.065 398.68 180.102C398.477 180.138 398.242 180.156 397.977 180.156C397.544 180.156 397.161 180.081 396.828 179.93C396.495 179.773 396.234 179.521 396.047 179.172C395.859 178.823 395.766 178.359 395.766 177.781V169.477ZM400.062 175.867V175.688C400.062 175.078 400.151 174.513 400.328 173.992C400.505 173.466 400.76 173.01 401.094 172.625C401.432 172.234 401.844 171.932 402.328 171.719C402.818 171.5 403.37 171.391 403.984 171.391C404.604 171.391 405.156 171.5 405.641 171.719C406.13 171.932 406.544 172.234 406.883 172.625C407.221 173.01 407.479 173.466 407.656 173.992C407.833 174.513 407.922 175.078 407.922 175.688V175.867C407.922 176.477 407.833 177.042 407.656 177.562C407.479 178.083 407.221 178.539 406.883 178.93C406.544 179.315 406.133 179.617 405.648 179.836C405.164 180.049 404.615 180.156 404 180.156C403.38 180.156 402.826 180.049 402.336 179.836C401.852 179.617 401.44 179.315 401.102 178.93C400.763 178.539 400.505 178.083 400.328 177.562C400.151 177.042 400.062 176.477 400.062 175.867ZM401.945 175.688V175.867C401.945 176.247 401.984 176.607 402.062 176.945C402.141 177.284 402.263 177.581 402.43 177.836C402.596 178.091 402.81 178.292 403.07 178.438C403.331 178.583 403.641 178.656 404 178.656C404.349 178.656 404.651 178.583 404.906 178.438C405.167 178.292 405.38 178.091 405.547 177.836C405.714 177.581 405.836 177.284 405.914 176.945C405.997 176.607 406.039 176.247 406.039 175.867V175.688C406.039 175.312 405.997 174.958 405.914 174.625C405.836 174.286 405.711 173.987 405.539 173.727C405.372 173.466 405.159 173.263 404.898 173.117C404.643 172.966 404.339 172.891 403.984 172.891C403.63 172.891 403.323 172.966 403.062 173.117C402.807 173.263 402.596 173.466 402.43 173.727C402.263 173.987 402.141 174.286 402.062 174.625C401.984 174.958 401.945 175.312 401.945 175.688ZM411.383 173.266V180H409.5V171.547H411.273L411.383 173.266ZM411.078 175.461L410.438 175.453C410.438 174.87 410.51 174.331 410.656 173.836C410.802 173.341 411.016 172.911 411.297 172.547C411.578 172.177 411.927 171.893 412.344 171.695C412.766 171.492 413.253 171.391 413.805 171.391C414.19 171.391 414.542 171.448 414.859 171.562C415.182 171.672 415.461 171.846 415.695 172.086C415.935 172.326 416.117 172.633 416.242 173.008C416.372 173.383 416.438 173.836 416.438 174.367V180H414.555V174.531C414.555 174.12 414.492 173.797 414.367 173.562C414.247 173.328 414.073 173.161 413.844 173.062C413.62 172.958 413.352 172.906 413.039 172.906C412.685 172.906 412.383 172.974 412.133 173.109C411.888 173.245 411.688 173.43 411.531 173.664C411.375 173.898 411.26 174.169 411.188 174.477C411.115 174.784 411.078 175.112 411.078 175.461ZM416.32 174.961L415.438 175.156C415.438 174.646 415.508 174.164 415.648 173.711C415.794 173.253 416.005 172.852 416.281 172.508C416.562 172.159 416.909 171.885 417.32 171.688C417.732 171.49 418.203 171.391 418.734 171.391C419.167 171.391 419.552 171.451 419.891 171.57C420.234 171.685 420.526 171.867 420.766 172.117C421.005 172.367 421.188 172.693 421.312 173.094C421.438 173.49 421.5 173.969 421.5 174.531V180H419.609V174.523C419.609 174.096 419.547 173.766 419.422 173.531C419.302 173.297 419.13 173.135 418.906 173.047C418.682 172.953 418.414 172.906 418.102 172.906C417.81 172.906 417.552 172.961 417.328 173.07C417.109 173.174 416.924 173.323 416.773 173.516C416.622 173.703 416.508 173.919 416.43 174.164C416.357 174.409 416.32 174.674 416.32 174.961ZM423.078 175.867V175.688C423.078 175.078 423.167 174.513 423.344 173.992C423.521 173.466 423.776 173.01 424.109 172.625C424.448 172.234 424.859 171.932 425.344 171.719C425.833 171.5 426.385 171.391 427 171.391C427.62 171.391 428.172 171.5 428.656 171.719C429.146 171.932 429.56 172.234 429.898 172.625C430.237 173.01 430.495 173.466 430.672 173.992C430.849 174.513 430.938 175.078 430.938 175.688V175.867C430.938 176.477 430.849 177.042 430.672 177.562C430.495 178.083 430.237 178.539 429.898 178.93C429.56 179.315 429.148 179.617 428.664 179.836C428.18 180.049 427.63 180.156 427.016 180.156C426.396 180.156 425.841 180.049 425.352 179.836C424.867 179.617 424.456 179.315 424.117 178.93C423.779 178.539 423.521 178.083 423.344 177.562C423.167 177.042 423.078 176.477 423.078 175.867ZM424.961 175.688V175.867C424.961 176.247 425 176.607 425.078 176.945C425.156 177.284 425.279 177.581 425.445 177.836C425.612 178.091 425.826 178.292 426.086 178.438C426.346 178.583 426.656 178.656 427.016 178.656C427.365 178.656 427.667 178.583 427.922 178.438C428.182 178.292 428.396 178.091 428.562 177.836C428.729 177.581 428.852 177.284 428.93 176.945C429.013 176.607 429.055 176.247 429.055 175.867V175.688C429.055 175.312 429.013 174.958 428.93 174.625C428.852 174.286 428.727 173.987 428.555 173.727C428.388 173.466 428.174 173.263 427.914 173.117C427.659 172.966 427.354 172.891 427 172.891C426.646 172.891 426.339 172.966 426.078 173.117C425.823 173.263 425.612 173.466 425.445 173.727C425.279 173.987 425.156 174.286 425.078 174.625C425 174.958 424.961 175.312 424.961 175.688ZM434.406 173.156V180H432.523V171.547H434.32L434.406 173.156ZM436.992 171.492L436.977 173.242C436.862 173.221 436.737 173.206 436.602 173.195C436.471 173.185 436.341 173.18 436.211 173.18C435.888 173.18 435.604 173.227 435.359 173.32C435.115 173.409 434.909 173.539 434.742 173.711C434.581 173.878 434.456 174.081 434.367 174.32C434.279 174.56 434.227 174.828 434.211 175.125L433.781 175.156C433.781 174.625 433.833 174.133 433.938 173.68C434.042 173.227 434.198 172.828 434.406 172.484C434.62 172.141 434.885 171.872 435.203 171.68C435.526 171.487 435.898 171.391 436.32 171.391C436.435 171.391 436.557 171.401 436.688 171.422C436.823 171.443 436.924 171.466 436.992 171.492ZM440.062 173.156V180H438.18V171.547H439.977L440.062 173.156ZM442.648 171.492L442.633 173.242C442.518 173.221 442.393 173.206 442.258 173.195C442.128 173.185 441.997 173.18 441.867 173.18C441.544 173.18 441.26 173.227 441.016 173.32C440.771 173.409 440.565 173.539 440.398 173.711C440.237 173.878 440.112 174.081 440.023 174.32C439.935 174.56 439.883 174.828 439.867 175.125L439.438 175.156C439.438 174.625 439.49 174.133 439.594 173.68C439.698 173.227 439.854 172.828 440.062 172.484C440.276 172.141 440.542 171.872 440.859 171.68C441.182 171.487 441.555 171.391 441.977 171.391C442.091 171.391 442.214 171.401 442.344 171.422C442.479 171.443 442.581 171.466 442.648 171.492ZM443.266 175.867V175.688C443.266 175.078 443.354 174.513 443.531 173.992C443.708 173.466 443.964 173.01 444.297 172.625C444.635 172.234 445.047 171.932 445.531 171.719C446.021 171.5 446.573 171.391 447.188 171.391C447.807 171.391 448.359 171.5 448.844 171.719C449.333 171.932 449.747 172.234 450.086 172.625C450.424 173.01 450.682 173.466 450.859 173.992C451.036 174.513 451.125 175.078 451.125 175.688V175.867C451.125 176.477 451.036 177.042 450.859 177.562C450.682 178.083 450.424 178.539 450.086 178.93C449.747 179.315 449.336 179.617 448.852 179.836C448.367 180.049 447.818 180.156 447.203 180.156C446.583 180.156 446.029 180.049 445.539 179.836C445.055 179.617 444.643 179.315 444.305 178.93C443.966 178.539 443.708 178.083 443.531 177.562C443.354 177.042 443.266 176.477 443.266 175.867ZM445.148 175.688V175.867C445.148 176.247 445.188 176.607 445.266 176.945C445.344 177.284 445.466 177.581 445.633 177.836C445.799 178.091 446.013 178.292 446.273 178.438C446.534 178.583 446.844 178.656 447.203 178.656C447.552 178.656 447.854 178.583 448.109 178.438C448.37 178.292 448.583 178.091 448.75 177.836C448.917 177.581 449.039 177.284 449.117 176.945C449.201 176.607 449.242 176.247 449.242 175.867V175.688C449.242 175.312 449.201 174.958 449.117 174.625C449.039 174.286 448.914 173.987 448.742 173.727C448.576 173.466 448.362 173.263 448.102 173.117C447.846 172.966 447.542 172.891 447.188 172.891C446.833 172.891 446.526 172.966 446.266 173.117C446.01 173.263 445.799 173.466 445.633 173.727C445.466 173.987 445.344 174.286 445.266 174.625C445.188 174.958 445.148 175.312 445.148 175.688ZM455 178.125L456.953 171.547H458.156L457.828 173.516L455.859 180H454.781L455 178.125ZM453.852 171.547L455.375 178.156L455.5 180H454.297L452.008 171.547H453.852ZM459.984 178.078L461.461 171.547H463.297L461.016 180H459.812L459.984 178.078ZM458.359 171.547L460.289 178.047L460.531 180H459.453L457.461 173.508L457.133 171.547H458.359Z" fill="white"/>
<path d="M11 72.6382V180.638L116.49 105.638L11 72.6382Z" fill="#C7C208"/>
<path d="M117 105.638L11.4214 180.442L115.598 214.427L117 105.638Z" fill="url(#paint0_linear_2805_9874)"/>
<g filter="url(#filter0_d_2805_9874)">
<path d="M44.7072 41.6611L46.3527 148.841L152.385 72.765L44.7072 41.6611Z" fill="#226544" stroke="#226544"/>
<path d="M153.426 73.4324L46.361 149.382L155.057 179.629L153.426 73.4324Z" fill="#00AF52" stroke="#00AF52"/>
</g>
<path d="M195.498 181H187.539L173.11 159.003C172.264 157.717 171.678 156.749 171.353 156.098H171.255C171.385 157.335 171.45 159.223 171.45 161.762V181H164.004V145.99H172.5L186.392 167.304C187.026 168.264 187.612 169.216 188.149 170.16H188.247C188.117 169.346 188.052 167.743 188.052 165.351V145.99H195.498V181ZM235 181H227.041L212.612 159.003C211.766 157.717 211.18 156.749 210.854 156.098H210.757C210.887 157.335 210.952 159.223 210.952 161.762V181H203.506V145.99H212.002L225.894 167.304C226.528 168.264 227.114 169.216 227.651 170.16H227.749C227.619 169.346 227.554 167.743 227.554 165.351V145.99H235V181ZM250.894 168.939V181H243.008V145.99H255.361C264.183 145.99 268.594 149.709 268.594 157.147C268.594 160.663 267.324 163.511 264.785 165.692C262.262 167.857 258.885 168.939 254.653 168.939H250.894ZM250.894 152.045V162.958H253.994C258.193 162.958 260.293 161.119 260.293 157.44C260.293 153.843 258.193 152.045 253.994 152.045H250.894ZM298.818 179.755C296.263 180.992 292.926 181.61 288.809 181.61C283.438 181.61 279.214 180.032 276.138 176.874C273.062 173.716 271.523 169.509 271.523 164.252C271.523 158.653 273.249 154.112 276.699 150.629C280.166 147.146 284.658 145.404 290.176 145.404C293.594 145.404 296.475 145.836 298.818 146.698V154.291C296.475 152.891 293.805 152.191 290.811 152.191C287.523 152.191 284.87 153.225 282.852 155.292C280.833 157.359 279.824 160.159 279.824 163.69C279.824 167.076 280.776 169.778 282.681 171.796C284.585 173.798 287.148 174.799 290.371 174.799C293.447 174.799 296.263 174.05 298.818 172.553V179.755Z" fill="white"/>
<path d="M325.602 156.445V158H319.562V156.445H325.602ZM320.117 146.625V158H318.156V146.625H320.117ZM324.812 151.375V152.906H319.562V151.375H324.812ZM325.562 146.625V148.188H319.562V146.625H325.562ZM328.883 151.352V158H327V149.547H328.773L328.883 151.352ZM328.547 153.461L327.938 153.453C327.943 152.854 328.026 152.305 328.188 151.805C328.354 151.305 328.583 150.875 328.875 150.516C329.172 150.156 329.526 149.88 329.938 149.688C330.349 149.49 330.807 149.391 331.312 149.391C331.719 149.391 332.086 149.448 332.414 149.562C332.747 149.672 333.031 149.852 333.266 150.102C333.505 150.352 333.688 150.677 333.812 151.078C333.938 151.474 334 151.961 334 152.539V158H332.109V152.531C332.109 152.125 332.049 151.805 331.93 151.57C331.815 151.331 331.646 151.161 331.422 151.062C331.203 150.958 330.93 150.906 330.602 150.906C330.279 150.906 329.99 150.974 329.734 151.109C329.479 151.245 329.263 151.43 329.086 151.664C328.914 151.898 328.781 152.169 328.688 152.477C328.594 152.784 328.547 153.112 328.547 153.461ZM339.648 158.156C339.023 158.156 338.458 158.055 337.953 157.852C337.453 157.643 337.026 157.354 336.672 156.984C336.323 156.615 336.055 156.18 335.867 155.68C335.68 155.18 335.586 154.641 335.586 154.062V153.75C335.586 153.089 335.682 152.49 335.875 151.953C336.068 151.417 336.336 150.958 336.68 150.578C337.023 150.193 337.43 149.898 337.898 149.695C338.367 149.492 338.875 149.391 339.422 149.391C340.026 149.391 340.555 149.492 341.008 149.695C341.461 149.898 341.836 150.185 342.133 150.555C342.435 150.919 342.659 151.354 342.805 151.859C342.956 152.365 343.031 152.922 343.031 153.531V154.336H336.5V152.984H341.172V152.836C341.161 152.497 341.094 152.18 340.969 151.883C340.849 151.586 340.664 151.346 340.414 151.164C340.164 150.982 339.831 150.891 339.414 150.891C339.102 150.891 338.823 150.958 338.578 151.094C338.339 151.224 338.138 151.414 337.977 151.664C337.815 151.914 337.69 152.216 337.602 152.57C337.518 152.919 337.477 153.312 337.477 153.75V154.062C337.477 154.432 337.526 154.776 337.625 155.094C337.729 155.406 337.88 155.68 338.078 155.914C338.276 156.148 338.516 156.333 338.797 156.469C339.078 156.599 339.398 156.664 339.758 156.664C340.211 156.664 340.615 156.573 340.969 156.391C341.323 156.208 341.63 155.951 341.891 155.617L342.883 156.578C342.701 156.844 342.464 157.099 342.172 157.344C341.88 157.583 341.523 157.779 341.102 157.93C340.685 158.081 340.201 158.156 339.648 158.156ZM346.391 151.156V158H344.508V149.547H346.305L346.391 151.156ZM348.977 149.492L348.961 151.242C348.846 151.221 348.721 151.206 348.586 151.195C348.456 151.185 348.326 151.18 348.195 151.18C347.872 151.18 347.589 151.227 347.344 151.32C347.099 151.409 346.893 151.539 346.727 151.711C346.565 151.878 346.44 152.081 346.352 152.32C346.263 152.56 346.211 152.828 346.195 153.125L345.766 153.156C345.766 152.625 345.818 152.133 345.922 151.68C346.026 151.227 346.182 150.828 346.391 150.484C346.604 150.141 346.87 149.872 347.188 149.68C347.51 149.487 347.883 149.391 348.305 149.391C348.419 149.391 348.542 149.401 348.672 149.422C348.807 149.443 348.909 149.466 348.977 149.492ZM355.414 149.547H357.125V157.766C357.125 158.526 356.964 159.172 356.641 159.703C356.318 160.234 355.867 160.638 355.289 160.914C354.711 161.195 354.042 161.336 353.281 161.336C352.958 161.336 352.599 161.289 352.203 161.195C351.812 161.102 351.432 160.951 351.062 160.742C350.698 160.539 350.393 160.271 350.148 159.938L351.031 158.828C351.333 159.188 351.667 159.451 352.031 159.617C352.396 159.784 352.779 159.867 353.18 159.867C353.612 159.867 353.979 159.786 354.281 159.625C354.589 159.469 354.826 159.237 354.992 158.93C355.159 158.622 355.242 158.247 355.242 157.805V151.461L355.414 149.547ZM349.672 153.867V153.703C349.672 153.062 349.75 152.479 349.906 151.953C350.062 151.422 350.286 150.966 350.578 150.586C350.87 150.201 351.224 149.906 351.641 149.703C352.057 149.495 352.529 149.391 353.055 149.391C353.602 149.391 354.068 149.49 354.453 149.688C354.844 149.885 355.169 150.169 355.43 150.539C355.69 150.904 355.893 151.341 356.039 151.852C356.19 152.357 356.302 152.919 356.375 153.539V154.062C356.307 154.667 356.193 155.219 356.031 155.719C355.87 156.219 355.656 156.651 355.391 157.016C355.125 157.38 354.797 157.661 354.406 157.859C354.021 158.057 353.565 158.156 353.039 158.156C352.523 158.156 352.057 158.049 351.641 157.836C351.229 157.622 350.875 157.323 350.578 156.938C350.286 156.552 350.062 156.099 349.906 155.578C349.75 155.052 349.672 154.482 349.672 153.867ZM351.555 153.703V153.867C351.555 154.253 351.591 154.612 351.664 154.945C351.742 155.279 351.859 155.573 352.016 155.828C352.177 156.078 352.38 156.276 352.625 156.422C352.875 156.562 353.169 156.633 353.508 156.633C353.951 156.633 354.312 156.539 354.594 156.352C354.88 156.164 355.099 155.911 355.25 155.594C355.406 155.271 355.516 154.911 355.578 154.516V153.102C355.547 152.794 355.482 152.508 355.383 152.242C355.289 151.977 355.161 151.745 355 151.547C354.839 151.344 354.635 151.188 354.391 151.078C354.146 150.964 353.857 150.906 353.523 150.906C353.185 150.906 352.891 150.979 352.641 151.125C352.391 151.271 352.185 151.471 352.023 151.727C351.867 151.982 351.75 152.279 351.672 152.617C351.594 152.956 351.555 153.318 351.555 153.703ZM361.531 157.078L363.828 149.547H365.844L362.453 159.289C362.375 159.497 362.273 159.724 362.148 159.969C362.023 160.214 361.859 160.445 361.656 160.664C361.458 160.888 361.211 161.068 360.914 161.203C360.617 161.344 360.258 161.414 359.836 161.414C359.669 161.414 359.508 161.398 359.352 161.367C359.201 161.341 359.057 161.312 358.922 161.281L358.914 159.844C358.966 159.849 359.029 159.854 359.102 159.859C359.18 159.865 359.242 159.867 359.289 159.867C359.602 159.867 359.862 159.828 360.07 159.75C360.279 159.677 360.448 159.557 360.578 159.391C360.714 159.224 360.828 159 360.922 158.719L361.531 157.078ZM360.234 149.547L362.242 155.875L362.578 157.859L361.273 158.195L358.203 149.547H360.234ZM373.453 158H371.57V148.734C371.57 148.104 371.688 147.576 371.922 147.148C372.161 146.716 372.503 146.391 372.945 146.172C373.388 145.948 373.911 145.836 374.516 145.836C374.703 145.836 374.888 145.849 375.07 145.875C375.253 145.896 375.43 145.93 375.602 145.977L375.555 147.43C375.451 147.404 375.336 147.385 375.211 147.375C375.091 147.365 374.961 147.359 374.82 147.359C374.534 147.359 374.286 147.414 374.078 147.523C373.875 147.628 373.719 147.781 373.609 147.984C373.505 148.188 373.453 148.438 373.453 148.734V158ZM375.195 149.547V150.922H370.273V149.547H375.195ZM376.203 153.867V153.688C376.203 153.078 376.292 152.513 376.469 151.992C376.646 151.466 376.901 151.01 377.234 150.625C377.573 150.234 377.984 149.932 378.469 149.719C378.958 149.5 379.51 149.391 380.125 149.391C380.745 149.391 381.297 149.5 381.781 149.719C382.271 149.932 382.685 150.234 383.023 150.625C383.362 151.01 383.62 151.466 383.797 151.992C383.974 152.513 384.062 153.078 384.062 153.688V153.867C384.062 154.477 383.974 155.042 383.797 155.562C383.62 156.083 383.362 156.539 383.023 156.93C382.685 157.315 382.273 157.617 381.789 157.836C381.305 158.049 380.755 158.156 380.141 158.156C379.521 158.156 378.966 158.049 378.477 157.836C377.992 157.617 377.581 157.315 377.242 156.93C376.904 156.539 376.646 156.083 376.469 155.562C376.292 155.042 376.203 154.477 376.203 153.867ZM378.086 153.688V153.867C378.086 154.247 378.125 154.607 378.203 154.945C378.281 155.284 378.404 155.581 378.57 155.836C378.737 156.091 378.951 156.292 379.211 156.438C379.471 156.583 379.781 156.656 380.141 156.656C380.49 156.656 380.792 156.583 381.047 156.438C381.307 156.292 381.521 156.091 381.688 155.836C381.854 155.581 381.977 155.284 382.055 154.945C382.138 154.607 382.18 154.247 382.18 153.867V153.688C382.18 153.312 382.138 152.958 382.055 152.625C381.977 152.286 381.852 151.987 381.68 151.727C381.513 151.466 381.299 151.263 381.039 151.117C380.784 150.966 380.479 150.891 380.125 150.891C379.771 150.891 379.464 150.966 379.203 151.117C378.948 151.263 378.737 151.466 378.57 151.727C378.404 151.987 378.281 152.286 378.203 152.625C378.125 152.958 378.086 153.312 378.086 153.688ZM387.531 151.156V158H385.648V149.547H387.445L387.531 151.156ZM390.117 149.492L390.102 151.242C389.987 151.221 389.862 151.206 389.727 151.195C389.596 151.185 389.466 151.18 389.336 151.18C389.013 151.18 388.729 151.227 388.484 151.32C388.24 151.409 388.034 151.539 387.867 151.711C387.706 151.878 387.581 152.081 387.492 152.32C387.404 152.56 387.352 152.828 387.336 153.125L386.906 153.156C386.906 152.625 386.958 152.133 387.062 151.68C387.167 151.227 387.323 150.828 387.531 150.484C387.745 150.141 388.01 149.872 388.328 149.68C388.651 149.487 389.023 149.391 389.445 149.391C389.56 149.391 389.682 149.401 389.812 149.422C389.948 149.443 390.049 149.466 390.117 149.492ZM399.156 149.547V150.922H394.391V149.547H399.156ZM395.766 147.477H397.648V155.664C397.648 155.924 397.685 156.125 397.758 156.266C397.836 156.401 397.943 156.492 398.078 156.539C398.214 156.586 398.372 156.609 398.555 156.609C398.685 156.609 398.81 156.602 398.93 156.586C399.049 156.57 399.146 156.555 399.219 156.539L399.227 157.977C399.07 158.023 398.888 158.065 398.68 158.102C398.477 158.138 398.242 158.156 397.977 158.156C397.544 158.156 397.161 158.081 396.828 157.93C396.495 157.773 396.234 157.521 396.047 157.172C395.859 156.823 395.766 156.359 395.766 155.781V147.477ZM400.062 153.867V153.688C400.062 153.078 400.151 152.513 400.328 151.992C400.505 151.466 400.76 151.01 401.094 150.625C401.432 150.234 401.844 149.932 402.328 149.719C402.818 149.5 403.37 149.391 403.984 149.391C404.604 149.391 405.156 149.5 405.641 149.719C406.13 149.932 406.544 150.234 406.883 150.625C407.221 151.01 407.479 151.466 407.656 151.992C407.833 152.513 407.922 153.078 407.922 153.688V153.867C407.922 154.477 407.833 155.042 407.656 155.562C407.479 156.083 407.221 156.539 406.883 156.93C406.544 157.315 406.133 157.617 405.648 157.836C405.164 158.049 404.615 158.156 404 158.156C403.38 158.156 402.826 158.049 402.336 157.836C401.852 157.617 401.44 157.315 401.102 156.93C400.763 156.539 400.505 156.083 400.328 155.562C400.151 155.042 400.062 154.477 400.062 153.867ZM401.945 153.688V153.867C401.945 154.247 401.984 154.607 402.062 154.945C402.141 155.284 402.263 155.581 402.43 155.836C402.596 156.091 402.81 156.292 403.07 156.438C403.331 156.583 403.641 156.656 404 156.656C404.349 156.656 404.651 156.583 404.906 156.438C405.167 156.292 405.38 156.091 405.547 155.836C405.714 155.581 405.836 155.284 405.914 154.945C405.997 154.607 406.039 154.247 406.039 153.867V153.688C406.039 153.312 405.997 152.958 405.914 152.625C405.836 152.286 405.711 151.987 405.539 151.727C405.372 151.466 405.159 151.263 404.898 151.117C404.643 150.966 404.339 150.891 403.984 150.891C403.63 150.891 403.323 150.966 403.062 151.117C402.807 151.263 402.596 151.466 402.43 151.727C402.263 151.987 402.141 152.286 402.062 152.625C401.984 152.958 401.945 153.312 401.945 153.688ZM414.656 156.25V146H416.547V158H414.836L414.656 156.25ZM409.156 153.867V153.703C409.156 153.062 409.232 152.479 409.383 151.953C409.534 151.422 409.753 150.966 410.039 150.586C410.326 150.201 410.674 149.906 411.086 149.703C411.497 149.495 411.961 149.391 412.477 149.391C412.987 149.391 413.435 149.49 413.82 149.688C414.206 149.885 414.534 150.169 414.805 150.539C415.076 150.904 415.292 151.341 415.453 151.852C415.615 152.357 415.729 152.919 415.797 153.539V154.062C415.729 154.667 415.615 155.219 415.453 155.719C415.292 156.219 415.076 156.651 414.805 157.016C414.534 157.38 414.203 157.661 413.812 157.859C413.427 158.057 412.977 158.156 412.461 158.156C411.951 158.156 411.49 158.049 411.078 157.836C410.672 157.622 410.326 157.323 410.039 156.938C409.753 156.552 409.534 156.099 409.383 155.578C409.232 155.052 409.156 154.482 409.156 153.867ZM411.039 153.703V153.867C411.039 154.253 411.073 154.612 411.141 154.945C411.214 155.279 411.326 155.573 411.477 155.828C411.628 156.078 411.823 156.276 412.062 156.422C412.307 156.562 412.599 156.633 412.938 156.633C413.365 156.633 413.716 156.539 413.992 156.352C414.268 156.164 414.484 155.911 414.641 155.594C414.802 155.271 414.911 154.911 414.969 154.516V153.102C414.938 152.794 414.872 152.508 414.773 152.242C414.68 151.977 414.552 151.745 414.391 151.547C414.229 151.344 414.029 151.188 413.789 151.078C413.555 150.964 413.276 150.906 412.953 150.906C412.609 150.906 412.318 150.979 412.078 151.125C411.839 151.271 411.641 151.471 411.484 151.727C411.333 151.982 411.221 152.279 411.148 152.617C411.076 152.956 411.039 153.318 411.039 153.703ZM423.281 156.305V152.273C423.281 151.971 423.227 151.711 423.117 151.492C423.008 151.273 422.841 151.104 422.617 150.984C422.398 150.865 422.122 150.805 421.789 150.805C421.482 150.805 421.216 150.857 420.992 150.961C420.768 151.065 420.594 151.206 420.469 151.383C420.344 151.56 420.281 151.76 420.281 151.984H418.406C418.406 151.651 418.487 151.328 418.648 151.016C418.81 150.703 419.044 150.424 419.352 150.18C419.659 149.935 420.026 149.742 420.453 149.602C420.88 149.461 421.359 149.391 421.891 149.391C422.526 149.391 423.089 149.497 423.578 149.711C424.073 149.924 424.461 150.247 424.742 150.68C425.029 151.107 425.172 151.643 425.172 152.289V156.047C425.172 156.432 425.198 156.779 425.25 157.086C425.307 157.388 425.388 157.651 425.492 157.875V158H423.562C423.474 157.797 423.404 157.539 423.352 157.227C423.305 156.909 423.281 156.602 423.281 156.305ZM423.555 152.859L423.57 154.023H422.219C421.87 154.023 421.562 154.057 421.297 154.125C421.031 154.188 420.81 154.281 420.633 154.406C420.456 154.531 420.323 154.682 420.234 154.859C420.146 155.036 420.102 155.237 420.102 155.461C420.102 155.685 420.154 155.891 420.258 156.078C420.362 156.26 420.513 156.404 420.711 156.508C420.914 156.612 421.159 156.664 421.445 156.664C421.831 156.664 422.167 156.586 422.453 156.43C422.745 156.268 422.974 156.073 423.141 155.844C423.307 155.609 423.396 155.388 423.406 155.18L424.016 156.016C423.953 156.229 423.846 156.458 423.695 156.703C423.544 156.948 423.346 157.182 423.102 157.406C422.862 157.625 422.573 157.805 422.234 157.945C421.901 158.086 421.516 158.156 421.078 158.156C420.526 158.156 420.034 158.047 419.602 157.828C419.169 157.604 418.831 157.305 418.586 156.93C418.341 156.549 418.219 156.12 418.219 155.641C418.219 155.193 418.302 154.797 418.469 154.453C418.641 154.104 418.891 153.812 419.219 153.578C419.552 153.344 419.958 153.167 420.438 153.047C420.917 152.922 421.464 152.859 422.078 152.859H423.555ZM429.469 157.078L431.766 149.547H433.781L430.391 159.289C430.312 159.497 430.211 159.724 430.086 159.969C429.961 160.214 429.797 160.445 429.594 160.664C429.396 160.888 429.148 161.068 428.852 161.203C428.555 161.344 428.195 161.414 427.773 161.414C427.607 161.414 427.445 161.398 427.289 161.367C427.138 161.341 426.995 161.312 426.859 161.281L426.852 159.844C426.904 159.849 426.966 159.854 427.039 159.859C427.117 159.865 427.18 159.867 427.227 159.867C427.539 159.867 427.799 159.828 428.008 159.75C428.216 159.677 428.385 159.557 428.516 159.391C428.651 159.224 428.766 159 428.859 158.719L429.469 157.078ZM428.172 149.547L430.18 155.875L430.516 157.859L429.211 158.195L426.141 149.547H428.172Z" fill="white"/>
<rect x="308" y="133" width="2" height="61" fill="white"/>
<defs>
<filter id="filter0_d_2805_9874" x="0.196838" y="0.993164" width="199.37" height="227.297" filterUnits="userSpaceOnUse" color-interpolation-filters="sRGB">
<feFlood flood-opacity="0" result="BackgroundImageFix"/>
<feColorMatrix in="SourceAlpha" type="matrix" values="0 0 0 0 0 0 0 0 0 0 0 0 0 0 0 0 0 0 127 0" result="hardAlpha"/>
<feOffset dy="4"/>
<feGaussianBlur stdDeviation="22"/>
<feComposite in2="hardAlpha" operator="out"/>
<feColorMatrix type="matrix" values="0 0 0 0 0 0 0 0 0 0 0 0 0 0 0 0 0 0 0.25 0"/>
<feBlend mode="normal" in2="BackgroundImageFix" result="effect1_dropShadow_2805_9874"/>
<feBlend mode="normal" in="SourceGraphic" in2="effect1_dropShadow_2805_9874" result="shape"/>
</filter>
<linearGradient id="paint0_linear_2805_9874" x1="33.2437" y1="116.729" x2="120.114" y2="223.908" gradientUnits="userSpaceOnUse">
<stop offset="0.660094" stop-color="#E2191A"/>
<stop offset="1" stop-opacity="0.37"/>
</linearGradient>
</defs>
</svg>
