<svg width="317" height="317" viewBox="0 0 317 317" fill="none" xmlns="http://www.w3.org/2000/svg">
<path d="M270.89 180.944C270.89 180.944 254.162 142.491 179.172 113.356C104.182 84.222 58.0058 145.353 58.0058 145.353" stroke="#1B4298" stroke-width="4" stroke-linecap="round"/>
<path d="M285.567 124.967C285.567 124.967 261.15 159.799 177.697 182.367C94.2446 204.934 57.211 145.096 57.211 145.096" stroke="#1B4298" stroke-width="4" stroke-linecap="round"/>
<path d="M86.0349 32.9376C86.0349 32.9376 66.3006 69.9384 90.0704 146.797C113.84 223.656 190.43 221.85 190.43 221.85" stroke="#6CADDF" stroke-width="4" stroke-linecap="round"/>
<path d="M44.006 62.8776C44.006 62.8776 84.7377 59.3118 150.012 108.084C215.287 156.855 190.722 222.632 190.722 222.632" stroke="#6CADDF" stroke-width="4" stroke-linecap="round"/>
<path d="M56.2446 237.476C56.2446 237.476 97.082 247.005 165.216 204.226C233.349 161.447 211.862 87.9111 211.862 87.9111" stroke="#6CADDF" stroke-width="4" stroke-linecap="round"/>
<path d="M96.007 270.367C96.007 270.367 82.0619 231.931 112.359 156.289C142.656 80.6484 212.542 87.4269 212.542 87.4269" stroke="#6CADDF" stroke-width="4" stroke-linecap="round"/>
<circle cx="149" cy="107" r="8" fill="#1B4298"/>
<circle cx="85" cy="122" r="8" fill="#6CADDF"/>
<circle cx="78" cy="68" r="8" fill="#6CADDF"/>
<circle cx="105" cy="181" r="8" fill="#1B4298"/>
<circle cx="93" cy="236" r="8" fill="#6CADDF"/>
<circle cx="148" cy="213" r="8" fill="#6CADDF"/>
<circle cx="196" cy="179" r="8" fill="#1B4298"/>
<circle cx="249" cy="154" r="8" fill="#1B4298"/>
<circle cx="214" cy="130" r="8" fill="#6CADDF"/>
</svg>
